<?xml version="1.0" encoding="UTF-8"?>
<svg version="1.1" xmlns="http://www.w3.org/2000/svg" width="500" height="500">
<path d="M0 0 C0.82886719 0.62132813 1.65773438 1.24265625 2.51171875 1.8828125 C36.51866191 28.25554393 57.74209228 64.60236811 63.59423828 107.24145508 C64.26065776 113.41445619 64.33986821 119.54574664 64.3125 125.75 C64.30976578 126.74812714 64.30976578 126.74812714 64.30697632 127.76641846 C64.0271893 189.17556702 42.53195062 252.48919477 12.640625 305.7421875 C11.30897159 308.3864707 10.2767567 310.90301191 9.25390625 313.66796875 C6.85518276 319.78568781 3.35037232 325.01035023 -0.3125 330.4375 C-1.60086408 332.37329628 -2.8886265 334.30949314 -4.17578125 336.24609375 C-5.1335144 337.67731567 -5.1335144 337.67731567 -6.1105957 339.13745117 C-7.9508884 341.92559329 -9.72982286 344.74509203 -11.5 347.578125 C-14.96021829 353.03913983 -18.74551095 358.19162991 -22.6875 363.3125 C-23.38883057 364.22547852 -24.09016113 365.13845703 -24.81274414 366.07910156 C-60.26009196 411.92978301 -60.26009196 411.92978301 -83.5625 418.75 C-96.27898011 420.05425437 -106.80560102 414.06168343 -116.5078125 406.21484375 C-129.03948174 395.76663166 -139.97728828 383.85707313 -150 371 C-150.66201416 370.15477783 -150.66201416 370.15477783 -151.33740234 369.29248047 C-159.90661231 358.29674756 -167.56390024 346.78475511 -175 335 C-175.41830078 334.33742188 -175.83660156 333.67484375 -176.26757812 332.9921875 C-186.28485422 317.0594641 -186.28485422 317.0594641 -189.36767578 309.76293945 C-190.84567606 306.29717533 -192.49875286 302.94908633 -194.22265625 299.59765625 C-194.84541154 298.37840055 -195.46753775 297.1588234 -196.08911133 295.93896484 C-196.41118561 295.30738464 -196.73325989 294.67580444 -197.06509399 294.02508545 C-222.8437842 243.3006242 -240.61815189 188.10626074 -243 131 C-243.04253906 130.07316406 -243.08507812 129.14632812 -243.12890625 128.19140625 C-244.03148821 89.62107067 -229.63596827 50.43419917 -203.1628418 22.32641602 C-201.77866526 20.88097778 -200.38936136 19.44045527 -199 18 C-198.16082031 17.08605469 -197.32164062 16.17210937 -196.45703125 15.23046875 C-147.19838441 -36.85999137 -56.7769157 -43.09680845 0 0 Z " fill="#216ED7" transform="translate(339,55)"/>
<path d="M0 0 C5.27836806 2.96744494 9.41341948 3.58298843 15.40532112 3.44001293 C16.27467293 3.43589397 17.14402473 3.43177502 18.03972054 3.42753124 C19.91344673 3.4168302 21.78713972 3.39737185 23.66069603 3.36996555 C26.62893464 3.32935124 29.59596863 3.31813983 32.56447029 3.31533337 C40.99853968 3.30360128 49.43179689 3.25080718 57.86528206 3.15046215 C63.03603427 3.09099629 68.20541962 3.07521395 73.3764782 3.08661366 C75.34213778 3.08216188 77.30783502 3.06092027 79.27312279 3.02243137 C94.64745103 2.726718 94.64745103 2.726718 98.8969593 6.03464794 C100.91912719 8.96260067 102.33061409 11.43179006 102.33061409 15.03693676 C74.94061409 15.03693676 47.55061409 15.03693676 19.33061409 15.03693676 C21.31061409 18.33693676 23.29061409 21.63693676 25.33061409 25.03693676 C26.54748909 24.21193676 27.76436409 23.38693676 29.01811409 22.53693676 C35.01108005 19.2389209 40.63835219 18.99555946 47.33061409 20.03693676 C51.1925862 21.44083606 55.37324907 23.07957174 58.33061409 26.03693676 C59.89509792 26.15957064 61.46494181 26.21473198 63.03398323 26.24225903 C64.53542633 26.27217686 64.53542633 26.27217686 66.06720161 26.30269909 C67.69999313 26.32776783 67.69999313 26.32776783 69.36577034 26.35334301 C70.47415764 26.37412411 71.58254494 26.3949052 72.72451973 26.41631603 C76.28065217 26.48193299 79.83686112 26.54075272 83.39311409 26.59943676 C85.79741902 26.64261044 88.20171608 26.68622434 90.60600471 26.73029613 C96.51412594 26.83762668 102.422324 26.93937007 108.33061409 27.03693676 C109.79124259 29.68432592 110.33061409 30.9314201 110.33061409 34.03693676 C95.15061409 34.03693676 79.97061409 34.03693676 64.33061409 34.03693676 C64.66061409 36.34693676 64.99061409 38.65693676 65.33061409 41.03693676 C66.40311409 40.37693676 67.47561409 39.71693676 68.58061409 39.03693676 C73.94211218 36.37047234 79.46533165 36.00767429 85.33061409 37.03693676 C86.90842659 38.01920238 86.90842659 38.01920238 88.51811409 39.02131176 C93.16662905 41.8846896 97.93685201 41.70676741 103.26811409 41.78693676 C104.23813362 41.8165852 105.20815315 41.84623363 106.20756721 41.87678051 C108.58199707 41.9469607 110.95547495 41.99991 113.33061409 42.03693676 C113.33061409 43.35693676 113.33061409 44.67693676 113.33061409 46.03693676 C107.72061409 46.03693676 102.11061409 46.03693676 96.33061409 46.03693676 C96.66061409 47.68693676 96.99061409 49.33693676 97.33061409 51.03693676 C103.27061409 51.03693676 109.21061409 51.03693676 115.33061409 51.03693676 C115.33061409 56.31693676 115.33061409 61.59693676 115.33061409 67.03693676 C41.41061409 67.03693676 -32.50938591 67.03693676 -108.66938591 67.03693676 C-108.66938591 47.87588807 -108.66938591 47.87588807 -106.85688591 41.47443676 C-106.67093864 40.81661205 -106.48499138 40.15878735 -106.29340935 39.48102856 C-105.77036116 37.66097444 -105.22100755 35.84853549 -104.66938591 34.03693676 C-104.45411247 33.17842113 -104.23883904 32.31990551 -104.01704216 31.43537426 C-102.56564015 26.36969665 -100.00697013 24.4054734 -95.60688591 21.94709301 C-88.80797354 18.7532491 -78.8563171 18.54883253 -71.60151482 20.63019848 C-67.78029637 22.09783048 -64.19892318 23.97445933 -60.66938591 26.03693676 C-60.56626091 25.33568676 -60.46313591 24.63443676 -60.35688591 23.91193676 C-59.66938591 21.03693676 -59.66938591 21.03693676 -56.66938591 15.03693676 C-69.53938591 15.03693676 -82.40938591 15.03693676 -95.66938591 15.03693676 C-92.50216737 7.1188904 -92.50216737 7.1188904 -89.66938591 4.03693676 C-86.30390791 3.18808809 -83.0208468 3.31835839 -79.56782341 3.40803051 C-78.57618187 3.40618252 -77.58454033 3.40433453 -76.56284904 3.40243053 C-73.38919175 3.3981773 -70.21774442 3.43232105 -67.04438591 3.47443676 C-63.89258685 3.51137756 -60.74222109 3.5389281 -57.59019279 3.53573132 C-55.63106438 3.53398063 -53.67173653 3.55467565 -51.71317863 3.60198498 C-45.49445001 3.60008673 -41.25111151 2.2999752 -35.83193779 -0.76048756 C-25.62875024 -6.43438854 -10.10202187 -5.82782319 0 0 Z " fill="#FBFCFC" transform="translate(246.66938591003418,111.96306324005127)"/>
<path d="M0 0 C73.92 0 147.84 0 224 0 C224 13.51674641 224 13.51674641 222.5625 19.5625 C222.29566406 20.71878906 222.02882813 21.87507813 221.75390625 23.06640625 C221.24055386 25.0639588 220.65220755 27.04337735 220 29 C200.65923532 29.11678402 181.31854216 29.20496396 161.97749805 29.25906086 C152.99716724 29.28484628 144.01705546 29.32000313 135.03686523 29.37719727 C127.21002628 29.42702204 119.38334594 29.45928856 111.55635279 29.47044247 C107.41164973 29.47696287 103.26740046 29.49229413 99.12284279 29.52865028 C95.22151071 29.5625955 91.32081921 29.57305619 87.41935349 29.56553841 C85.98785483 29.56691364 84.55633469 29.57685572 83.12496376 29.59602737 C81.16942993 29.62093422 79.21355216 29.61193583 77.25788879 29.60127258 C76.16372052 29.60588155 75.06955225 29.61049051 73.94222736 29.61523914 C70.06049272 28.80354283 68.63607791 26.87012176 66 24 C62.92892152 23.24647615 62.92892152 23.24647615 59.55737305 23.34057617 C58.27642258 23.32093307 56.99547211 23.30128998 55.67570496 23.28105164 C54.28770814 23.28449458 52.89971258 23.28847957 51.51171875 23.29296875 C50.08394772 23.27984666 48.65619523 23.26454085 47.22846985 23.24714661 C43.48178286 23.20734204 39.73558197 23.19710924 35.9887085 23.19311523 C32.16094255 23.18377501 28.33346119 23.14635606 24.50585938 23.11132812 C17.00390376 23.04679889 9.50223939 23.01352082 2 23 C2 21.68 2 20.36 2 19 C21.47 19 40.94 19 61 19 C61 18.34 61 17.68 61 17 C57.71464132 15.04814097 55.21859079 14.73684309 51.42114258 14.69702148 C50.30351028 14.68037949 49.18587799 14.66373749 48.03437805 14.64659119 C46.83322861 14.63817703 45.63207916 14.62976288 44.39453125 14.62109375 C43.1595842 14.60409927 41.92463715 14.5871048 40.65226746 14.56959534 C37.37626216 14.52546233 34.10030287 14.48913976 30.82415771 14.45739746 C26.19619946 14.41162197 21.56837795 14.35587744 16.94059753 14.29469299 C14.47672273 14.26262112 12.01277377 14.23576747 9.54878235 14.21446228 C8.44060654 14.20097244 7.33243073 14.1874826 6.19067383 14.17358398 C5.21012527 14.16407211 4.22957672 14.15456024 3.21931458 14.14476013 C1 14 1 14 0 13 C0 8.71 0 4.42 0 0 Z " fill="#FCFDFC" transform="translate(138,183)"/>
<path d="M0 0 C37.29 0 74.58 0 113 0 C109.15301352 8.9763018 109.15301352 8.9763018 105 12 C101.95312595 12.68307666 99.00650942 12.63329881 95.89526367 12.56762695 C94.98745148 12.56835709 94.07963928 12.56908722 93.14431763 12.56983948 C90.15158794 12.56636336 87.16042564 12.52750083 84.16796875 12.48828125 C82.09004059 12.47895322 80.01210142 12.47183706 77.93415833 12.46684265 C72.47093223 12.44777222 67.00837312 12.39867041 61.54541016 12.34332275 C55.96851626 12.29213162 50.39151436 12.26932886 44.81445312 12.24414062 C33.87600939 12.19055222 22.93806021 12.10523836 12 12 C12.48210937 12.53109375 12.96421875 13.0621875 13.4609375 13.609375 C14.40839844 14.66898438 14.40839844 14.66898438 15.375 15.75 C16.00148438 16.44609375 16.62796875 17.1421875 17.2734375 17.859375 C18.87505183 19.84508688 19.96520068 21.67954093 21 24 C9.9693014 24.11573581 -1.0612533 24.20463503 -12.09243488 24.25906086 C-17.21442894 24.28517974 -22.33600831 24.32061962 -27.45776367 24.37719727 C-32.39851658 24.4314353 -37.3388701 24.46140327 -42.27989769 24.47438622 C-44.16704792 24.48364088 -46.05417573 24.50171289 -47.94115639 24.52865028 C-50.58015177 24.56483229 -53.21748685 24.56995003 -55.85668945 24.56762695 C-57.03272987 24.59459152 -57.03272987 24.59459152 -58.23252869 24.62210083 C-60.41230774 24.60127258 -60.41230774 24.60127258 -64 24 C-65.88786316 21.58415222 -65.88786316 21.58415222 -67 19 C-68.90587036 17.06186057 -68.90587036 17.06186057 -71 15.375 C-73.44052838 13.33198192 -75.78339963 11.28586914 -78 9 C-77.67 8.34 -77.34 7.68 -77 7 C-49.94 7 -22.88 7 5 7 C3.35 5.35 1.7 3.7 0 2 C0 1.34 0 0.68 0 0 Z " fill="#0F9910" transform="translate(234,236)"/>
<path d="M0 0 C30.69 0 61.38 0 93 0 C88.55380655 8.8923869 88.55380655 8.8923869 84 12 C78.53250785 13.18276301 73.12689908 13.07314539 67.56640625 13 C65.96213315 13.00752529 64.35787303 13.01856523 62.75364685 13.03295898 C58.54952955 13.06130441 54.34694147 13.0421628 50.1428833 13.01287842 C45.84580675 12.99143217 41.54900183 13.01524095 37.25195312 13.03515625 C28.83424817 13.06754241 20.41761863 13.04972663 12 13 C12.86625 13.84304688 13.7325 14.68609375 14.625 15.5546875 C15.75026041 16.66119357 16.87524628 17.76797888 18 18.875 C18.57234375 19.43058594 19.1446875 19.98617188 19.734375 20.55859375 C21.19450782 22.00134404 22.60149298 23.4974374 24 25 C24 25.66 24 26.32 24 27 C13.77764214 27.34067843 3.55518488 27.63059295 -6.67036819 27.85746098 C-11.41969948 27.96439049 -16.16729411 28.08814225 -20.91503906 28.25170898 C-25.50530343 28.40920852 -30.09468378 28.52072778 -34.68691254 28.60171318 C-36.43023417 28.64028829 -38.17328458 28.69485133 -39.91556549 28.76637459 C-50.65996919 29.1949764 -57.37952657 28.53859805 -65.61639404 21.28733826 C-66.79627899 20.15510582 -66.79627899 20.15510582 -68 19 C-69.41201707 17.82771021 -70.82798382 16.66014031 -72.25 15.5 C-73.1575 14.675 -74.065 13.85 -75 13 C-75 12.67 -75 12.34 -75 12 C-47.28 12 -19.56 12 9 12 C6.69 9.36 4.38 6.72 2 4 C1.01 2.02 1.01 2.02 0 0 Z " fill="#FBFDFC" transform="translate(246,248)"/>
<path d="M0 0 C1.56603595 -0.01085031 3.13205147 -0.0251001 4.69802856 -0.04248047 C8.93813015 -0.0788648 13.17666975 -0.06485014 17.41679764 -0.03944778 C21.86050781 -0.01914787 26.30408712 -0.03799007 30.74780273 -0.05053711 C38.20939062 -0.06507871 45.6703444 -0.04594586 53.13183594 -0.0078125 C61.75005249 0.03572478 70.36675494 0.02162109 78.98493481 -0.02242374 C86.39332351 -0.05876563 93.80125724 -0.06383249 101.20970631 -0.04291439 C105.6305249 -0.03046233 110.05063253 -0.02872171 114.47140503 -0.0552063 C118.62864678 -0.07837383 122.78394299 -0.06219007 126.94097519 -0.01605225 C128.46348723 -0.0055035 129.98616396 -0.00846322 131.50860977 -0.02615356 C143.01186553 -0.14746172 143.01186553 -0.14746172 147.04415894 2.80154419 C148.80086332 4.79652353 150.21231877 6.79247086 151.62890625 9.03515625 C152.83546875 10.21078125 152.83546875 10.21078125 154.06640625 11.41015625 C155.62890625 13.03515625 155.62890625 13.03515625 155.62890625 15.03515625 C144.08445021 15.15135492 132.54013485 15.24002593 120.9952116 15.29421711 C115.63355946 15.32023521 110.27230944 15.35549043 104.91088867 15.41235352 C99.73019814 15.46695167 94.54989273 15.49663527 89.36893654 15.50954247 C87.39908606 15.51873262 85.42925504 15.53667832 83.45956993 15.56380653 C64.75889643 15.81096605 64.75889643 15.81096605 56.79353333 11.20939636 C49.54522087 7.27742151 38.828982 8.05807137 31.0859375 9.859375 C26.8909067 11.23387352 23.31108484 12.58037052 19.62890625 15.03515625 C17.52180481 15.27566528 17.52180481 15.27566528 15.06567383 15.26220703 C14.14494583 15.26205597 13.22421783 15.26190491 12.27558899 15.26174927 C11.284879 15.2514267 10.29416901 15.24110413 9.2734375 15.23046875 C7.74827766 15.22622391 7.74827766 15.22622391 6.19230652 15.22189331 C2.94188717 15.21069008 -0.30825756 15.18558511 -3.55859375 15.16015625 C-5.76106373 15.15012664 -7.96353803 15.14100076 -10.16601562 15.1328125 C-15.56780218 15.1107503 -20.96942834 15.07727133 -26.37109375 15.03515625 C-25.49588649 13.63482464 -24.60493336 12.24308343 -23.66041565 10.88853455 C-22.77530958 9.61620963 -21.93755014 8.31002836 -21.14219666 6.97975159 C-15.72367946 -0.79432808 -8.6338381 -0.10032251 0 0 Z " fill="#0332C5" transform="translate(185.37109375,99.96484375)"/>
<path d="M0 0 C3.47111308 0.03052261 6.94208364 0.01492914 10.41327882 0.00634766 C16.23611128 -0.0008457 22.05789515 0.02826102 27.88048768 0.07958984 C34.59190737 0.13832269 41.30150418 0.13994553 48.0130772 0.11098671 C54.5006256 0.08426081 60.9875158 0.09731589 67.47502542 0.128479 C70.22256103 0.1410395 72.96958362 0.14005994 75.71711755 0.12786865 C79.55883179 0.11947953 83.39753207 0.15646633 87.23888612 0.20556641 C88.36586915 0.19453888 89.49285218 0.18351135 90.65398622 0.17214966 C98.71880885 0.34510006 102.84616464 2.65794469 108.6365912 8.14306641 C109.98754408 9.27192364 111.34149331 10.39720944 112.6990912 11.51806641 C113.6684662 12.38431641 114.6378412 13.25056641 115.6365912 14.14306641 C115.6365912 14.47306641 115.6365912 14.80306641 115.6365912 15.14306641 C63.4965912 15.14306641 11.3565912 15.14306641 -42.3634088 15.14306641 C-29.90415865 -0.43099629 -19.34317032 -0.21349152 0 0 Z " fill="#FBFDFD" transform="translate(213.36340880393982,84.85693359375)"/>
<path d="M0 0 C68.97 0 137.94 0 209 0 C207.68 2.64 206.36 5.28 205 8 C164.41 8 123.82 8 82 8 C82 8.66 82 9.32 82 10 C82.66 10 83.32 10 84 10 C84 10.66 84 11.32 84 12 C57.93 12 31.86 12 5 12 C4.67 10.02 4.34 8.04 4 6 C3.34 6 2.68 6 2 6 C0 3 0 3 0 0 Z " fill="#059504" transform="translate(145,221)"/>
<path d="M0 0 C23.1 0 46.2 0 70 0 C70 0.66 70 1.32 70 2 C68.171875 3.65625 68.171875 3.65625 65.75 5.5 C64.96109375 6.1084375 64.1721875 6.716875 63.359375 7.34375 C61 9 61 9 58.76953125 10.08984375 C56.44929728 11.28325328 56.11174715 12.70238923 55 15 C51.15290977 16.28236341 47.60987329 16.01501341 43.61328125 15.87890625 C42.38776802 15.84348976 42.38776802 15.84348976 41.13749695 15.80735779 C38.52898407 15.73080782 35.92077456 15.64674628 33.3125 15.5625 C31.54363462 15.50927063 29.77475445 15.45653028 28.00585938 15.40429688 C23.67038094 15.27520441 19.33515957 15.13937489 15 15 C16.18855591 16.18178833 16.18855591 16.18178833 17.40112305 17.38745117 C20.14072894 20.14146927 22.55078095 22.99095945 25 26 C22.30962916 28.69037084 20.08640908 28.80352876 16.375 29.5625 C14.59222656 29.93568359 14.59222656 29.93568359 12.7734375 30.31640625 C-14.37527413 35.23465111 -41.23457684 29.85919467 -65 16 C-65 15.67 -65 15.34 -65 15 C-39.26 15 -13.52 15 13 15 C10.69 12.36 8.38 9.72 6 7 C4.02 4.69 2.04 2.38 0 0 Z " fill="#069707" transform="translate(257,260)"/>
<path d="M0 0 C40.92 0 81.84 0 124 0 C122 5 122 5 121 7 C83.38 7 45.76 7 7 7 C8.98 9.64 10.96 12.28 13 15 C2.28214632 15.20867055 -8.43522313 15.36851391 -19.15469551 15.46630955 C-24.13250674 15.51325162 -29.10892695 15.57689975 -34.0859375 15.67895508 C-38.89064022 15.77685885 -43.69400669 15.83058008 -48.49962997 15.85389519 C-50.33142005 15.87050577 -52.16313814 15.90294562 -53.99435806 15.95157051 C-68.35381934 16.31764256 -68.35381934 16.31764256 -72.49017334 13.00680542 C-74.50287905 10.08960606 -76 7.59821697 -76 4 C-50.26 4 -24.52 4 2 4 C2 3.34 2 2.68 2 2 C1.34 2 0.68 2 0 2 C0 1.34 0 0.68 0 0 Z " fill="#F3FDF4" transform="translate(227,229)"/>
<path d="M0 0 C1.02705551 -0.00018127 1.02705551 -0.00018127 2.07485962 -0.00036621 C12.59105115 0.02606449 21.86012481 0.88803643 31.8125 4.375 C33.34003906 4.808125 33.34003906 4.808125 34.8984375 5.25 C43.47738578 7.77189556 51.06026031 12.01171755 58.8125 16.375 C58.8125 16.705 58.8125 17.035 58.8125 17.375 C19.8725 17.375 -19.0675 17.375 -59.1875 17.375 C-52.9460945 11.1335945 -44.42523647 8.60445722 -36.25 5.6875 C-35.42830322 5.39004883 -34.60660645 5.09259766 -33.76000977 4.78613281 C-22.56332417 0.8937465 -11.81624852 -0.03210307 0 0 Z " fill="#0133C9" transform="translate(250.1875,67.625)"/>
<path d="M0 0 C7.99734891 -0.11597526 15.99434509 -0.20475511 23.99232769 -0.25906086 C27.70636943 -0.28512841 31.41983486 -0.32047209 35.13354492 -0.37719727 C38.71919713 -0.43162214 42.30429591 -0.46144192 45.89032936 -0.47438622 C47.25670902 -0.48360764 48.62305919 -0.50161581 49.9892025 -0.52865028 C51.9061554 -0.56506759 53.8236681 -0.56704345 55.7409668 -0.56762695 C56.83128708 -0.57873001 57.92160736 -0.58983307 59.04496765 -0.60127258 C62 0 62 0 64.29357147 2.49762726 C67.56002099 5.51779726 68.8840362 5.62818206 73.25788879 5.63923645 C74.51847107 5.65452393 75.77905334 5.6698114 77.07783508 5.68556213 C78.46701332 5.67731082 79.85618878 5.6685821 81.24536133 5.65942383 C82.7140743 5.66787944 84.18277606 5.67852467 85.65145874 5.69119263 C89.63259709 5.71933567 93.6131966 5.71686813 97.59440446 5.70889878 C101.75716489 5.70577368 105.91975372 5.73080814 110.08244324 5.75285339 C117.96236023 5.79030728 125.84210465 5.80244217 133.72210187 5.8054778 C142.69431891 5.81016718 151.66636292 5.84308659 160.63850367 5.87837565 C179.09231911 5.95032549 197.54605371 5.98682937 216 6 C215.34 7.65 214.68 9.3 214 11 C195.52005209 11.04667124 177.04011611 11.08196487 158.56012154 11.10362434 C149.98000242 11.11394744 141.39991987 11.12802745 132.81982422 11.15087891 C125.34350145 11.17078122 117.86720515 11.18370891 110.39085662 11.18817699 C106.43029814 11.19078974 102.46981542 11.19695215 98.50928116 11.21146011 C94.78456588 11.22499421 91.05995786 11.22923115 87.33522034 11.22621536 C85.96538079 11.2267674 84.5955378 11.23076967 83.22571945 11.23841095 C81.36096515 11.24830639 79.49615382 11.24479014 77.63137817 11.24050903 C76.06340831 11.24327441 76.06340831 11.24327441 74.46376228 11.24609566 C72 11 72 11 70 9 C66.96300567 8.70599437 66.96300567 8.70599437 63.34716797 8.77294922 C62.32260498 8.77251114 62.32260498 8.77251114 61.27734375 8.77206421 C59.01549659 8.77345961 56.75397724 8.78903033 54.4921875 8.8046875 C52.92563049 8.80841689 51.35907116 8.81126421 49.79251099 8.81326294 C45.66605203 8.82090524 41.53973349 8.84055876 37.41333008 8.8626709 C33.20395813 8.88311654 28.99456352 8.8922619 24.78515625 8.90234375 C16.523373 8.92380417 8.26170396 8.95794721 0 9 C0 6.03 0 3.06 0 0 Z " fill="#229824" transform="translate(142,206)"/>
<path d="M0 0 C0 1.65 0 3.3 0 5 C0.87398437 5.14115234 0.87398437 5.14115234 1.765625 5.28515625 C4.49893336 6.15962379 5.75839814 7.39057587 7.75 9.4375 C8.36359375 10.05496094 8.9771875 10.67242187 9.609375 11.30859375 C11 13 11 13 11 15 C-0.0306986 15.11573581 -11.0612533 15.20463503 -22.09243488 15.25906086 C-27.21442894 15.28517974 -32.33600831 15.32061962 -37.45776367 15.37719727 C-42.39851658 15.4314353 -47.3388701 15.46140327 -52.27989769 15.47438622 C-54.16704792 15.48364088 -56.05417573 15.50171289 -57.94115639 15.52865028 C-60.58015177 15.56483229 -63.21748685 15.56995003 -65.85668945 15.56762695 C-67.03272987 15.59459152 -67.03272987 15.59459152 -68.23252869 15.62210083 C-70.41230774 15.60127258 -70.41230774 15.60127258 -74 15 C-75.86833191 12.62467957 -75.86833191 12.62467957 -77 10 C-77.7425 9.154375 -78.485 8.30875 -79.25 7.4375 C-79.8275 6.633125 -80.405 5.82875 -81 5 C-80.609375 2.84765625 -80.609375 2.84765625 -80 1 C-79.06705612 1.00222061 -78.13411224 1.00444122 -77.17289734 1.00672913 C-68.3882958 1.02698543 -59.60369898 1.04198417 -50.8190794 1.05181217 C-46.30263484 1.05703465 -41.78620911 1.06412084 -37.26977539 1.07543945 C-32.91260912 1.08629081 -28.55546098 1.09228163 -24.19828224 1.09487724 C-22.53448005 1.09672742 -20.87067887 1.10034027 -19.20688438 1.10573006 C-16.87968157 1.11297029 -14.55255403 1.11398967 -12.2253418 1.11352539 C-11.53482224 1.11712067 -10.84430267 1.12071594 -10.13285828 1.12442017 C-6.58683119 1.11674588 -3.42735998 0 0 0 Z " fill="#029802" transform="translate(244,245)"/>
<path d="M0 0 C30.69 0 61.38 0 93 0 C90.58203187 4.83593627 88.42239652 8.76613628 84 12 C79.40177829 13.17245494 74.92022273 13.0703538 70.1953125 13 C68.78898393 13.00762046 67.38267071 13.01875135 65.97639465 13.03309631 C62.15600883 13.06210472 58.33727617 13.04198298 54.5169487 13.0130806 C50.49891715 12.99110761 46.48114759 13.01455169 42.46313477 13.03295898 C35.60464442 13.05814486 28.74667254 13.05443646 21.88818359 13.03076172 C11.59316725 12.99534642 1.29855294 13.00783345 -8.99648285 13.02934647 C-29.33112529 13.07066877 -49.6654008 13.0529575 -70 13 C-70 13.99 -70 14.98 -70 16 C-73.875 14.25 -73.875 14.25 -75 12 C-47.28 12 -19.56 12 9 12 C6.69 9.36 4.38 6.72 2 4 C1.01 2.02 1.01 2.02 0 0 Z " fill="#F2FAF1" transform="translate(246,248)"/>
<path d="M0 0 C8.96192395 -0.0462815 17.92380695 -0.0818478 26.8858242 -0.10362434 C31.04697253 -0.11407446 35.20803926 -0.12825592 39.36914062 -0.15087891 C43.38266429 -0.17256371 47.39610933 -0.18455937 51.40968704 -0.18975449 C52.94314436 -0.19345811 54.47659724 -0.20069011 56.01002121 -0.21146011 C58.15309801 -0.22591729 60.29584736 -0.2279804 62.43896484 -0.22705078 C64.27096939 -0.23371262 64.27096939 -0.23371262 66.13998413 -0.24050903 C69 0 69 0 71 2 C73.57582057 2.31529522 73.57582057 2.31529522 76.63137817 2.2784729 C77.82893738 2.28963638 79.02649658 2.30079987 80.26034546 2.31230164 C81.594299 2.31466682 82.9282529 2.31684243 84.26220703 2.31884766 C85.66150495 2.32814192 87.0607973 2.33830984 88.46008301 2.34928894 C92.26561649 2.37665971 96.07111281 2.39175919 99.876719 2.40471697 C103.851277 2.42031667 107.82575876 2.44711689 111.80026245 2.4727478 C119.3296019 2.51959174 126.85895559 2.55630859 134.38836658 2.58942068 C142.9590345 2.62760249 151.52962596 2.6770229 160.1002295 2.72740483 C177.73343042 2.83080816 195.36667797 2.92004115 213 3 C212.67 4.32 212.34 5.64 212 7 C142.7 7 73.4 7 2 7 C1.34 4.69 0.68 2.38 0 0 Z " fill="#D2F6D2" transform="translate(143,214)"/>
<path d="M0 0 C27.72 0 55.44 0 84 0 C85.32 2.64 86.64 5.28 88 8 C88.66 8 89.32 8 90 8 C90.51468115 9.49502619 91.01088241 10.99641629 91.5 12.5 C91.7784375 13.3353125 92.056875 14.170625 92.34375 15.03125 C93.17467413 18.7901925 93.09862195 22.15374412 93 26 C89.81281557 26.117292 86.62619432 26.18760766 83.4375 26.25 C82.54224609 26.28351563 81.64699219 26.31703125 80.72460938 26.3515625 C74.4213939 26.44391731 71.3047329 25.30343101 66 22 C62.90307274 21.41554232 62.90307274 21.41554232 59.875 21.5625 C58.88242187 21.56378906 57.88984375 21.56507813 56.8671875 21.56640625 C53.61914467 22.05759529 51.74715461 23.25643554 49 25 C48.01 25 47.02 25 46 25 C45.505 21.535 45.505 21.535 45 18 C60.18 18 75.36 18 91 18 C90.01 15.03 90.01 15.03 89 12 C88.39136108 11.99857498 87.78272217 11.99714996 87.15563965 11.99568176 C80.79568968 11.97592829 74.43669219 11.92153369 68.07714844 11.84741211 C65.70677535 11.82427784 63.33630013 11.80984719 60.96582031 11.80444336 C57.5494862 11.79512087 54.13474835 11.75405462 50.71875 11.70703125 C49.14015198 11.71293022 49.14015198 11.71293022 47.52966309 11.71894836 C41.46626279 11.599896 37.54849069 10.8107077 32.63098145 7.16654968 C27.68918452 3.63195912 20.74799075 4.38878831 15 5 C11.32086315 6.33532124 8.3835325 7.9799806 5 10 C3.35 6.7 1.7 3.4 0 0 Z " fill="#0232C7" transform="translate(266,128)"/>
<path d="M0 0 C73.92 0 147.84 0 224 0 C224 1.32 224 2.64 224 4 C150.08 4 76.16 4 0 4 C0 2.68 0 1.36 0 0 Z " fill="#767676" transform="translate(138,179)"/>
<path d="M0 0 C8.01465346 -0.09271207 16.02908259 -0.16377038 24.04413986 -0.20724869 C27.76594748 -0.22811704 31.48738802 -0.25641981 35.20898438 -0.30175781 C38.8010951 -0.34524413 42.39285295 -0.36914277 45.9852066 -0.37950897 C47.35517177 -0.3868955 48.72511777 -0.40132001 50.09493256 -0.42292023 C52.01459389 -0.4519848 53.9346109 -0.45363416 55.85449219 -0.45410156 C56.94703308 -0.46298401 58.03957397 -0.47186646 59.16522217 -0.48101807 C62.68482445 0.11620414 63.88221149 1.17028258 66 4 C66 4.99 66 5.98 66 7 C44.55 7 23.1 7 1 7 C0.67 4.69 0.34 2.38 0 0 Z " fill="#059505" transform="translate(142,206)"/>
<path d="M0 0 C68.97 0 137.94 0 209 0 C208.34 1.65 207.68 3.3 207 5 C206.67 4.01 206.34 3.02 206 2 C139.34 2 72.68 2 4 2 C4.33 3.98 4.66 5.96 5 8 C4.67 7.34 4.34 6.68 4 6 C3.34 6 2.68 6 2 6 C0 3 0 3 0 0 Z " fill="#359D37" transform="translate(145,221)"/>
<path d="M0 0 C1.32 0 2.64 0 4 0 C4.33 0.66 4.66 1.32 5 2 C20.84 2.33 36.68 2.66 53 3 C53 2.34 53 1.68 53 1 C53.66 1 54.32 1 55 1 C55.51468115 2.49502619 56.01088241 3.99641629 56.5 5.5 C56.7784375 6.3353125 57.056875 7.170625 57.34375 8.03125 C58.17467413 11.7901925 58.09862195 15.15374412 58 19 C54.81281557 19.117292 51.62619432 19.18760766 48.4375 19.25 C47.54224609 19.28351563 46.64699219 19.31703125 45.72460938 19.3515625 C39.4213939 19.44391731 36.3047329 18.30343101 31 15 C27.90307274 14.41554232 27.90307274 14.41554232 24.875 14.5625 C23.88242187 14.56378906 22.88984375 14.56507813 21.8671875 14.56640625 C18.61914467 15.05759529 16.74715461 16.25643554 14 18 C13.01 18 12.02 18 11 18 C10.67 15.69 10.34 13.38 10 11 C25.18 11 40.36 11 56 11 C55.34 9.02 54.68 7.04 54 5 C53.38247864 4.99635437 52.76495728 4.99270874 52.12872314 4.98895264 C45.70457247 4.9471597 39.28113839 4.8778367 32.85742188 4.79248047 C30.4597083 4.76424535 28.06190121 4.74304354 25.6640625 4.72900391 C22.21826203 4.70761028 18.77358905 4.6609762 15.328125 4.609375 C14.25508118 4.60814636 13.18203735 4.60691772 12.07647705 4.60565186 C11.07574158 4.58593323 10.0750061 4.5662146 9.04394531 4.54589844 C8.16458313 4.53701599 7.28522095 4.52813354 6.37921143 4.51898193 C3.2726952 3.84135161 2.03392477 2.3733175 0 0 Z " fill="#4261B8" transform="translate(301,135)"/>
<path d="M0 0 C7.75953912 -0.0760007 15.51898242 -0.12857918 23.27880859 -0.16479492 C25.91914456 -0.1798909 28.55945542 -0.20036954 31.19970703 -0.22631836 C34.99257603 -0.26266491 38.78511377 -0.27971845 42.578125 -0.29296875 C43.76053772 -0.30845261 44.94295044 -0.32393646 46.16119385 -0.33988953 C47.26203308 -0.34011612 48.36287231 -0.34034271 49.49707031 -0.34057617 C50.46525696 -0.34723801 51.4334436 -0.35389984 52.43096924 -0.36076355 C55.4407798 0.06189777 56.83082981 0.89940335 59 3 C59 3.66 59 4.32 59 5 C39.86 5 20.72 5 1 5 C0.67 3.35 0.34 1.7 0 0 Z " fill="#179417" transform="translate(140,197)"/>
<path d="M0 0 C8.42321859 0.10749782 16.8463461 0.22013049 25.26940632 0.33933926 C29.18047084 0.39452943 33.0915429 0.44794319 37.00268555 0.49731445 C40.77636918 0.54501562 44.54996231 0.59736051 48.32353783 0.65294075 C49.76402727 0.67333824 51.20454151 0.69205562 52.64507484 0.70907402 C54.66098342 0.73317543 56.67681114 0.7637768 58.69262695 0.79467773 C59.84068314 0.81022202 60.98873932 0.8257663 62.17158508 0.84178162 C65 1 65 1 68 2 C68 2.99 68 3.98 68 5 C46.55 5 25.1 5 3 5 C2.67 5.66 2.34 6.32 2 7 C1.34 4.69 0.68 2.38 0 0 Z " fill="#FAFDFA" transform="translate(143,214)"/>
<path d="M0 0 C12.21 0 24.42 0 37 0 C33.93271312 3.06728688 30.95874174 4.70939199 27.125 6.5625 C26.51269531 6.86607422 25.90039062 7.16964844 25.26953125 7.48242188 C14.42920408 12.80973469 14.42920408 12.80973469 9 11 C6.375 8.125 6.375 8.125 4 5 C2.67098936 3.99426222 1.33926199 2.99204592 0 2 C0 1.34 0 0.68 0 0 Z " fill="#F8FBFB" transform="translate(272,275)"/>
<path d="M0 0 C0 0.99 0 1.98 0 3 C1.29625809 2.99333817 2.59251617 2.98667633 3.92805481 2.97981262 C16.12677849 2.91907402 28.3254716 2.87406223 40.52431202 2.84456348 C46.79630127 2.82888822 53.06816874 2.80761585 59.34008789 2.77368164 C65.38955067 2.74115478 71.4388961 2.72316101 77.48843956 2.71536827 C79.79978979 2.70981277 82.1111334 2.69896466 84.42243385 2.68280983 C87.65261488 2.66112453 90.88230707 2.65802938 94.11254883 2.65942383 C95.5550853 2.64324509 95.5550853 2.64324509 97.02676392 2.6267395 C97.90595993 2.63086349 98.78515594 2.63498749 99.69099426 2.63923645 C100.45516065 2.63647107 101.21932703 2.63370569 102.00664997 2.63085651 C104 3 104 3 107 6 C68.06 6 29.12 6 -11 6 C-7.92832129 2.92832129 -4.55956968 0 0 0 Z " fill="#0E36B0" transform="translate(202,79)"/>
<path d="M0 0 C37.29 0 74.58 0 113 0 C112.01 2.31 111.02 4.62 110 7 C109.505 6.01 109.505 6.01 109 5 C109.33 4.01 109.66 3.02 110 2 C75.35 2 40.7 2 5 2 C4.67 3.32 4.34 4.64 4 6 C2.62437146 4.71034824 1.29233607 3.37310707 0 2 C0 1.34 0 0.68 0 0 Z " fill="#4DAC4F" transform="translate(234,236)"/>
<path d="M0 0 C27.72 0 55.44 0 84 0 C83.67 0.66 83.34 1.32 83 2 C82.42814972 1.99777939 81.85629944 1.99555878 81.26712036 1.99327087 C75.33026757 1.97119517 69.39342638 1.9560838 63.45654297 1.94506836 C61.23909024 1.94003091 59.02164084 1.93320078 56.80419922 1.92456055 C53.62206195 1.91246928 50.43996849 1.9067659 47.2578125 1.90234375 C45.76400558 1.89460182 45.76400558 1.89460182 44.24002075 1.88670349 C43.31921722 1.88662796 42.3984137 1.88655243 41.44970703 1.88647461 C40.23059128 1.88314369 40.23059128 1.88314369 38.98684692 1.87974548 C36.92472641 1.87415342 36.92472641 1.87415342 35 3 C35.66 3.99 36.32 4.98 37 6 C34.40810875 6.95995972 33.33802904 7.14211255 30.7421875 6.05078125 C24.80653 3.77629141 17.86819389 3.95270783 11.9296875 6.12109375 C9.56470856 7.31032105 7.27289758 8.64304622 5 10 C3.35 6.7 1.7 3.4 0 0 Z " fill="#0331CA" transform="translate(266,128)"/>
<path d="M0 0 C2.9795099 -0.26653946 5.7488582 -0.34767784 8.7265625 -0.29296875 C9.58937836 -0.28872391 10.45219421 -0.28447906 11.34115601 -0.28010559 C14.10275197 -0.26328392 16.86362383 -0.22562598 19.625 -0.1875 C21.49478114 -0.17245764 23.3645737 -0.15876846 25.234375 -0.14648438 C29.82319658 -0.11336906 34.41147544 -0.06156339 39 0 C37.68 3.3 36.36 6.6 35 10 C31.71883421 9.17970855 30.10785561 8.51945581 27.3125 6.9375 C19.73918229 3.50878402 9.81669597 3.59082791 1.90234375 5.90625 C-0.77989126 7.0428261 -0.77989126 7.0428261 -4 9 C-2.94124926 5.59687262 -1.99097846 2.98646769 0 0 Z " fill="#0934B8" transform="translate(151,128)"/>
<path d="M0 0 C8.36628849 7.05024311 8.36628849 7.05024311 11 10 C11 10.66 11 11.32 11 12 C-15.4 12.33 -41.8 12.66 -69 13 C-68.34 12.01 -67.68 11.02 -67 10 C-63.98812866 9.63923645 -63.98812866 9.63923645 -60.07177734 9.65942383 C-59.35947464 9.65898575 -58.64717194 9.65854767 -57.9132843 9.65809631 C-55.55389188 9.6601899 -53.19520609 9.68354675 -50.8359375 9.70703125 C-49.20212187 9.7126252 -47.56830122 9.71689625 -45.93447876 9.71989441 C-41.63039298 9.73135906 -37.32661002 9.76083992 -33.02264404 9.79400635 C-28.63232521 9.82467249 -24.24195753 9.83839233 -19.8515625 9.85351562 C-11.2342359 9.88570829 -2.6171556 9.93692392 6 10 C6 9.34 6 8.68 6 8 C5.34 8 4.68 8 4 8 C4 7.34 4 6.68 4 6 C3.01 5.67 2.02 5.34 1 5 C0.505 2.525 0.505 2.525 0 0 Z " fill="#BDECBD" transform="translate(259,263)"/>
<path d="M0 0 C19.47 0 38.94 0 59 0 C58.01 0.66 57.02 1.32 56 2 C58.97 2.33 61.94 2.66 65 3 C64.67 3.66 64.34 4.32 64 5 C32.32 4.505 32.32 4.505 0 4 C0 2.68 0 1.36 0 0 Z " fill="#D2F6D3" transform="translate(140,202)"/>
<path d="M0 0 C0.33 0 0.66 0 1 0 C1.05513412 1.66627552 1.09329293 3.33311412 1.125 5 C1.14820312 5.928125 1.17140625 6.85625 1.1953125 7.8125 C1 11 1 11 0.01367188 14.49414062 C-1.329781 19.73312103 -1.35240454 24.89727924 -1.4140625 30.28125 C-1.43342865 31.33534058 -1.4527948 32.38943115 -1.4727478 33.47546387 C-1.53216164 36.81689557 -1.57877562 40.15836244 -1.625 43.5 C-1.66321494 45.77605605 -1.70226869 48.05209819 -1.7421875 50.328125 C-1.83783146 55.88529241 -1.92298895 61.4425448 -2 67 C-1.01 67 -0.02 67 1 67 C1.05382106 69.62527189 1.09358313 72.24944713 1.125 74.875 C1.14175781 75.62136719 1.15851563 76.36773437 1.17578125 77.13671875 C1.1933959 79.09194461 1.10320189 81.04742021 1 83 C0.01 83.99 0.01 83.99 -1 85 C-2.87752948 71.67713557 -4.53661194 58.45273474 -5 45 C-5.061875 43.62134766 -5.061875 43.62134766 -5.125 42.21484375 C-5.47470788 28.07353144 -3.40021758 13.6915428 0 0 Z " fill="#427DC9" transform="translate(101,141)"/>
<path d="M0 0 C2 1.375 2 1.375 4 3 C4 3.66 4 4.32 4 5 C-24.05 5 -52.1 5 -81 5 C-81 4.34 -81 3.68 -81 3 C-40.905 2.505 -40.905 2.505 0 2 C0 1.34 0 0.68 0 0 Z " fill="#39A139" transform="translate(251,255)"/>
<path d="M0 0 C24.75 0.33 49.5 0.66 75 1 C75 1.33 75 1.66 75 2 C64.52101294 2.17869214 54.0418488 2.34406078 43.5625 2.5 C42.76479816 2.51187725 41.96709633 2.5237545 41.14522171 2.53599167 C13.07538348 2.94991016 -14.98976879 3.08921367 -43.0625 3.0625 C-43.96859386 3.06164398 -44.87468773 3.06078796 -45.80823898 3.05990601 C-56.87218061 3.0486635 -67.93609029 3.0288138 -79 3 C-79 3.99 -79 4.98 -79 6 C-82.875 4.25 -82.875 4.25 -84 2 C-56.28 2 -28.56 2 0 2 C0 1.34 0 0.68 0 0 Z " fill="#C0EBC2" transform="translate(255,258)"/>
<path d="M0 0 C-1.32 0.33 -2.64 0.66 -4 1 C-4 1.66 -4 2.32 -4 3 C-3.34 3 -2.68 3 -2 3 C-2 3.66 -2 4.32 -2 5 C-28.07 5 -54.14 5 -81 5 C-81 4.01 -81 3.02 -81 2 C-56.25 2 -31.5 2 -6 2 C-6 1.34 -6 0.68 -6 0 C-3.50907189 -1.24546405 -2.58919267 -0.7767578 0 0 Z " fill="#379C39" transform="translate(231,228)"/>
<path d="M0 0 C1.98 1.98 1.98 1.98 4 4 C-48.14 4 -100.28 4 -154 4 C-153.01 3.01 -152.02 2.02 -151 1 C-151 1.66 -151 2.32 -151 3 C-101.5 2.67 -52 2.34 -1 2 C-0.67 1.34 -0.34 0.68 0 0 Z " fill="#DDEBFE" transform="translate(325,96)"/>
<path d="M0 0 C8.58 0 17.16 0 26 0 C26.33 2.31 26.66 4.62 27 7 C23.81321064 7.17591619 20.6276836 7.28136778 17.4375 7.375 C16.54224609 7.42527344 15.64699219 7.47554687 14.72460938 7.52734375 C9.73381989 7.63703143 6.74328298 7.32320638 2.84765625 4.0390625 C1.16430664 2.39697266 1.16430664 2.39697266 0 1 C0 0.67 0 0.34 0 0 Z " fill="#0B36BE" transform="translate(332,147)"/>
<path d="M0 0 C1.04742009 0.24260512 1.04742009 0.24260512 2.11600018 0.49011135 C5.18275877 1.03231159 8.03010185 1.13947611 11.14399719 1.15821838 C12.37933701 1.1680072 13.61467682 1.17779602 14.88745117 1.18788147 C16.24829063 1.19378483 17.60913049 1.19959532 18.9699707 1.20532227 C20.40911639 1.21490689 21.84825929 1.22491731 23.28739929 1.23532104 C27.18778744 1.26231289 31.08818761 1.28335335 34.98861718 1.30332303 C39.06723732 1.32521794 43.14582062 1.35258946 47.22441101 1.37937927 C54.94490519 1.42925881 62.66541988 1.47421519 70.38595408 1.51740164 C79.17673724 1.56681455 87.96748343 1.62171763 96.75823081 1.67708123 C114.8387862 1.79082851 132.91937649 1.89768331 151 2 C151 2.33 151 2.66 151 3 C131.60737868 3.07000466 112.21478291 3.12294618 92.82206154 3.15543652 C83.81818042 3.17092166 74.81437769 3.19204252 65.81054688 3.22631836 C57.96505984 3.25617043 50.11962956 3.27556301 42.27408731 3.28226548 C38.11787097 3.28618489 33.96181703 3.29542992 29.80565262 3.31719017 C25.89705114 3.33748928 21.98867962 3.34384725 18.08003044 3.33932304 C16.64245671 3.34015121 15.20487562 3.34615605 13.76734734 3.35761642 C11.81066263 3.37245593 9.85385568 3.367186 7.89712524 3.36076355 C6.25172477 3.36491162 6.25172477 3.36491162 4.57308388 3.36914349 C3.7239662 3.24732614 2.87484852 3.12550879 2 3 C1.34 2.01 0.68 1.02 0 0 Z " fill="#DDFEDF" transform="translate(207,209)"/>
<path d="M0 0 C6.93 0 13.86 0 21 0 C21 1.32 21 2.64 21 4 C15.39 4 9.78 4 4 4 C4.33 5.65 4.66 7.3 5 9 C10.94 9 16.88 9 23 9 C23 10.32 23 11.64 23 13 C22.29101562 12.835 21.58203125 12.67 20.8515625 12.5 C17.94386024 11.99015632 15.32205889 11.93505104 12.375 12 C9.14310717 12.07083601 7.09343748 12.03114583 4 11 C2.15921658 8.13655913 1.6105167 5.31423351 1 2 C0.67 1.34 0.34 0.68 0 0 Z " fill="#D4E0F7" transform="translate(339,154)"/>
<path d="M0 0 C27.72 0 55.44 0 84 0 C83.67 0.66 83.34 1.32 83 2 C56.6 1.67 30.2 1.34 3 1 C3.66 1.99 4.32 2.98 5 4 C5 4.99 5 5.98 5 7 C5.66 6.34 6.32 5.68 7 5 C9.65537372 4.43479997 12.29144713 4.26211802 15 4 C11.87567603 6.52349243 8.61939504 8.27256146 5 10 C3.35 6.7 1.7 3.4 0 0 Z " fill="#0934AD" transform="translate(266,128)"/>
<path d="M0 0 C25.08 0 50.16 0 76 0 C76 0.33 76 0.66 76 1 C53.89 1.33 31.78 1.66 9 2 C9.99 2.99 10.98 3.98 12 5 C12 5.66 12 6.32 12 7 C7.39104317 5.68315519 3.85859765 3.84801255 0 1 C0 0.67 0 0.34 0 0 Z " fill="#0C910E" transform="translate(195,276)"/>
<path d="M0 0 C3 3.75 3 3.75 3 6 C-24.39 6 -51.78 6 -80 6 C-79.34 7.98 -78.68 9.96 -78 12 C-78.99 11.67 -79.98 11.34 -81 11 C-81 9.02 -81 7.04 -81 5 C-54.6 4.67 -28.2 4.34 -1 4 C-0.67 2.68 -0.34 1.36 0 0 Z " fill="#D8E8FD" transform="translate(346,121)"/>
<path d="M0 0 C0.99 0.33 1.98 0.66 3 1 C3.99 3.475 3.99 3.475 5 6 C-24.7 6 -54.4 6 -85 6 C-85 5.67 -85 5.34 -85 5 C-56.29 5 -27.58 5 2 5 C2 4.01 2 3.02 2 2 C1.34 2 0.68 2 0 2 C0 1.34 0 0.68 0 0 Z " fill="#0C36B3" transform="translate(336,109)"/>
<path d="M0 0 C2.02054804 1.64169528 4.02043058 3.30911778 6 5 C6 5.33 6 5.66 6 6 C-21.06 6 -48.12 6 -76 6 C-75.67 5.34 -75.34 4.68 -75 4 C-49.92 4.33 -24.84 4.66 1 5 C0.505 2.525 0.505 2.525 0 0 Z " fill="#E1FEDD" transform="translate(234,238)"/>
<path d="M0 0 C12.21 0 24.42 0 37 0 C34.28336207 2.71663793 32.69805347 2.30753121 28.8984375 2.4140625 C27.68671875 2.45273437 26.475 2.49140625 25.2265625 2.53125 C23.95554687 2.5621875 22.68453125 2.593125 21.375 2.625 C20.09625 2.66367187 18.8175 2.70234375 17.5 2.7421875 C14.33347983 2.83671049 11.1669696 2.92226357 8 3 C7.67 3.99 7.34 4.98 7 6 C7.66 6.33 8.32 6.66 9 7 C4.68381834 7 3.07210341 4.86729652 0 2 C0 1.34 0 0.68 0 0 Z " fill="#CBF3CD" transform="translate(272,275)"/>
<path d="M0 0 C25.74 0 51.48 0 78 0 C78 0.33 78 0.66 78 1 C53.58 1 29.16 1 4 1 C3.67 1.99 3.34 2.98 3 4 C2.01 3.34 1.02 2.68 0 2 C0 1.34 0 0.68 0 0 Z " fill="#128F12" transform="translate(160,245)"/>
<path d="M0 0 C23.1 0 46.2 0 70 0 C70 0.66 70 1.32 70 2 C48.22 2 26.44 2 4 2 C4.99 2.99 5.98 3.98 7 5 C6.01 5 5.02 5 4 5 C2.68 3.35 1.36 1.7 0 0 Z " fill="#1C8B1B" transform="translate(257,260)"/>
<path d="M0 0 C25.74 0 51.48 0 78 0 C78 0.33 78 0.66 78 1 C68.27302961 1.13061903 58.54605637 1.26102311 48.8190794 1.39115143 C44.3026433 1.45157948 39.78620822 1.51208206 35.26977539 1.57275391 C30.91261334 1.63128345 26.55544872 1.68961862 22.19828224 1.74781799 C20.53448201 1.770076 18.87068272 1.79240451 17.20688438 1.81480408 C14.87970596 1.84612273 12.55252434 1.8771926 10.2253418 1.90820312 C9.53482224 1.91755386 8.84430267 1.9269046 8.13285828 1.9365387 C5.42158694 1.97245427 2.71155429 2 0 2 C0 1.34 0 0.68 0 0 Z " fill="#D9FDDC" transform="translate(151,233)"/>
<path d="M0 0 C0.66 0 1.32 0 2 0 C1.25 3.375 1.25 3.375 0 7 C-1.9375 8.0625 -1.9375 8.0625 -4 9 C-4.43054688 9.88429687 -4.86109375 10.76859375 -5.3046875 11.6796875 C-7.15537427 15.30430445 -9.43694581 18.11162135 -12.1875 21.0625 C-12.6721875 21.58835693 -13.156875 22.11421387 -13.65625 22.65600586 C-16.92159897 26.10282294 -20.15041068 28.82299208 -24.34375 31.03515625 C-26.21352836 32.12439034 -27.53238169 33.42052054 -29 35 C-29.99 34.67 -30.98 34.34 -32 34 C-30.21326795 32.4941255 -28.42046492 30.9954515 -26.625 29.5 C-25.62726563 28.6646875 -24.62953125 27.829375 -23.6015625 26.96875 C-21 25 -21 25 -19 25 C-19 24.34 -19 23.68 -19 23 C-18.29875 22.608125 -17.5975 22.21625 -16.875 21.8125 C-11.05588258 18.14392598 -7.97470278 13.08461931 -5 7 C-3.68612831 5.64748503 -2.35573748 4.31054623 -1 3 C-0.67 2.01 -0.34 1.02 0 0 Z " fill="#2F8296" transform="translate(346,237)"/>
<path d="M0 0 C1.02114143 0.24114784 1.02114143 0.24114784 2.06291199 0.48716736 C5.41467388 1.07240447 8.59035316 1.16240085 11.9934082 1.20532227 C13.01862831 1.22017166 13.01862831 1.22017166 14.06455994 1.23532104 C16.30993254 1.26675406 18.55532626 1.29162095 20.80078125 1.31640625 C22.36305777 1.33699153 23.92532891 1.3579884 25.4875946 1.37937927 C29.58923986 1.43443751 33.69093401 1.48391808 37.79266357 1.53222656 C41.98226243 1.58256061 46.17179072 1.6381844 50.36132812 1.69335938 C58.57415899 1.80074206 66.78704909 1.90223076 75 2 C75 2.33 75 2.66 75 3 C65.66421561 3.06946198 56.32851996 3.12279178 46.99253368 3.15543652 C42.65760875 3.17110311 38.3228604 3.19235934 33.98803711 3.22631836 C29.80591912 3.25887664 25.62397115 3.27684553 21.44173622 3.28463173 C19.84489578 3.29018162 18.24806481 3.30101906 16.65129662 3.31719017 C14.41730906 3.33891808 12.18402712 3.34196896 9.94995117 3.34057617 C8.67754074 3.34723801 7.40513031 3.35389984 6.09416199 3.36076355 C3 3 3 3 1.06562805 1.47871399 C0.71397079 0.99073837 0.36231354 0.50276276 0 0 Z " fill="#E7FDE7" transform="translate(253,256)"/>
<path d="M0 0 C8.01461979 -0.1158896 16.02888913 -0.20471166 24.04413986 -0.25906086 C27.7660559 -0.28514706 31.48739843 -0.32052492 35.20898438 -0.37719727 C38.80111569 -0.43155547 42.39269572 -0.4614279 45.9852066 -0.47438622 C47.35520355 -0.48361959 48.72517056 -0.50165106 50.09493256 -0.52865028 C52.01448599 -0.56497896 53.93459511 -0.56704269 55.85449219 -0.56762695 C56.94703308 -0.57873001 58.03957397 -0.58983307 59.16522217 -0.60127258 C62.92011872 0.19516244 63.94374612 1.86387303 66 5 C64.02 4.34 62.04 3.68 60 3 C60 2.34 60 1.68 60 1 C40.53 1 21.06 1 1 1 C0.67 2.32 0.34 3.64 0 5 C0 3.35 0 1.7 0 0 Z " fill="#218D20" transform="translate(142,206)"/>
<path d="M0 0 C8.83151775 -0.06942341 17.66294198 -0.12277203 26.49467278 -0.15543652 C30.59534193 -0.17111161 34.6958248 -0.1923831 38.79638672 -0.22631836 C42.75156619 -0.25884669 46.70656617 -0.27683912 50.66186905 -0.28463173 C52.17301384 -0.29018704 53.68414849 -0.30103491 55.19521713 -0.31719017 C57.30728352 -0.33887859 59.41860242 -0.34197066 61.53076172 -0.34057617 C62.73433319 -0.34723801 63.93790466 -0.35389984 65.177948 -0.36076355 C66.57486374 -0.18218559 66.57486374 -0.18218559 68 0 C68.99 1.485 68.99 1.485 70 3 C69.14522064 2.83923477 68.29044128 2.67846954 67.40975952 2.51283264 C64.04021241 2.006048 60.84902696 1.84178496 57.44384766 1.79467773 C56.16297272 1.77473251 54.88209778 1.75478729 53.56240845 1.73423767 C52.17962766 1.71725854 50.79684565 1.70037955 49.4140625 1.68359375 C47.98773632 1.66299945 46.56141591 1.64200236 45.13510132 1.62062073 C41.3967966 1.56565556 37.65843915 1.51613457 33.92004395 1.46777344 C30.09899247 1.41737076 26.27801674 1.36178305 22.45703125 1.30664062 C14.97141847 1.19937206 7.48574233 1.09785878 0 1 C0 0.67 0 0.34 0 0 Z " fill="#D3FBD2" transform="translate(144,214)"/>
<path d="M0 0 C0.66 0.33 1.32 0.66 2 1 C1.030625 1.61875 0.06125 2.2375 -0.9375 2.875 C-4.02835362 4.65678846 -4.02835362 4.65678846 -5 7 C-6.32 6.67 -7.64 6.34 -9 6 C-9 6.66 -9 7.32 -9 8 C-32.265 7.505 -32.265 7.505 -56 7 C-56 6.67 -56 6.34 -56 6 C-55.44591461 5.99857498 -54.89182922 5.99714996 -54.32095337 5.99568176 C-48.51214174 5.97587283 -42.70436521 5.92136227 -36.89599609 5.84741211 C-34.73331143 5.82432927 -32.57051591 5.80985939 -30.40771484 5.80444336 C-27.28413576 5.7950827 -24.16227722 5.75393617 -21.0390625 5.70703125 C-19.60719101 5.71293022 -19.60719101 5.71293022 -18.14639282 5.71894836 C-11.80418236 5.58356393 -7.48339703 4.16968769 -1.99472046 0.97123718 C-1.00733383 0.49047478 -1.00733383 0.49047478 0 0 Z " fill="#D7E4FC" transform="translate(213,110)"/>
<path d="M0 0 C0.99 0.33 1.98 0.66 3 1 C-2.88210992 5.76927831 -6.2681311 7.32284159 -13.83203125 7.37109375 C-15.13608162 7.38463646 -15.13608162 7.38463646 -16.46647644 7.39845276 C-18.30647334 7.41296008 -20.14652188 7.4218432 -21.98657227 7.42553711 C-24.79207166 7.43741352 -27.59535682 7.48657489 -30.40039062 7.53710938 C-32.19009346 7.54657626 -33.97980977 7.55381003 -35.76953125 7.55859375 C-37.02138969 7.58789223 -37.02138969 7.58789223 -38.29853821 7.61778259 C-42.59657065 7.58474544 -45.2046405 7.25860522 -48.5769043 4.46508789 C-49.37652588 3.65160889 -50.17614746 2.83812988 -51 2 C-50.01 1.67 -49.02 1.34 -48 1 C-47.67 1.99 -47.34 2.98 -47 4 C-43.22272188 5.25909271 -39.68830525 5.14300597 -35.75390625 5.1328125 C-34.94638412 5.13376923 -34.138862 5.13472595 -33.30686951 5.13571167 C-31.59967979 5.13639188 -29.89248748 5.13454868 -28.18530273 5.13037109 C-25.57594976 5.12502754 -22.96676945 5.13031786 -20.35742188 5.13671875 C-18.69791629 5.1360578 -17.03841081 5.1347763 -15.37890625 5.1328125 C-14.59963272 5.13483673 -13.82035919 5.13686096 -13.01747131 5.13894653 C-9.50700808 5.12380449 -6.37721441 4.94267837 -3 4 C-3 3.34 -3 2.68 -3 2 C-2.01 1.34 -1.02 0.68 0 0 Z " fill="#0F9012" transform="translate(316,267)"/>
<path d="M0 0 C2.0625 0.4375 2.0625 0.4375 4 1 C4 1.99 4 2.98 4 4 C4.66 4 5.32 4 6 4 C6.99 4 7.98 4 9 4 C8.34 5.65 7.68 7.3 7 9 C4.07261758 8.37549175 1.76144762 7.39516294 -0.875 6 C-6.97914887 3.17798143 -13.37141737 3.18857988 -20 3 C-20 2.67 -20 2.34 -20 2 C-19.42967041 1.97494385 -18.85934082 1.9498877 -18.27172852 1.92407227 C-15.70173843 1.80843451 -13.13214473 1.68556376 -10.5625 1.5625 C-9.66466797 1.52318359 -8.76683594 1.48386719 -7.84179688 1.44335938 C-6.98779297 1.40146484 -6.13378906 1.35957031 -5.25390625 1.31640625 C-4.46314697 1.27974854 -3.6723877 1.24309082 -2.85766602 1.20532227 C-0.98598559 1.19436743 -0.98598559 1.19436743 0 0 Z " fill="#2B4EC2" transform="translate(179,129)"/>
<path d="M0 0 C5.61 0 11.22 0 17 0 C17 1.32 17 2.64 17 4 C11.39 4 5.78 4 0 4 C0 2.68 0 1.36 0 0 Z " fill="#1036B0" transform="translate(344,159)"/>
<path d="M0 0 C1.32 0.66 2.64 1.32 4 2 C4 2.66 4 3.32 4 4 C-15.14 4 -34.28 4 -54 4 C-54 3.67 -54 3.34 -54 3 C-36.51 2.67 -19.02 2.34 -1 2 C-0.67 1.34 -0.34 0.68 0 0 Z " fill="#3F9F3D" transform="translate(195,198)"/>
<path d="M0 0 C-0.50603992 2.16874252 -0.99983813 3.99967627 -2 6 C-2.66 6 -3.32 6 -4 6 C-4.33 6.66 -4.66 7.32 -5 8 C-7.40363914 10.6039424 -9.57165653 12.74503365 -12.625 14.5625 C-15.14518748 16.08787663 -16.39936188 17.55692076 -18 20 C-18.66 19.34 -19.32 18.68 -20 18 C-17.04974274 14.99196428 -14.08850331 11.9949821 -11.125 9 C-10.28324219 8.14148438 -9.44148437 7.28296875 -8.57421875 6.3984375 C-7.76855469 5.58632812 -6.96289062 4.77421875 -6.1328125 3.9375 C-5.38918457 3.18339844 -4.64555664 2.42929688 -3.87939453 1.65234375 C-2 0 -2 0 0 0 Z " fill="#3B76CA" transform="translate(153,62)"/>
<path d="M0 0 C0.33 0.99 0.66 1.98 1 3 C19.315 3.495 19.315 3.495 38 4 C38 10 38 10 36 13 C35.34 13 34.68 13 34 13 C35.875 7.25 35.875 7.25 37 5 C24.13 5 11.26 5 -2 5 C-1.34 3.35 -0.68 1.7 0 0 Z " fill="#D6E5FC" transform="translate(153,122)"/>
<path d="M0 0 C0.66 0.66 1.32 1.32 2 2 C1.44570313 2.20496094 0.89140625 2.40992188 0.3203125 2.62109375 C-0.40414062 2.89050781 -1.12859375 3.15992188 -1.875 3.4375 C-2.59429687 3.70433594 -3.31359375 3.97117187 -4.0546875 4.24609375 C-6.03648845 4.97916854 -6.03648845 4.97916854 -8 6 C-19.28870289 7.27174539 -30.65914842 7.10986831 -42 7 C-42 6.67 -42 6.34 -42 6 C-41.29617187 5.96036133 -40.59234375 5.92072266 -39.8671875 5.87988281 C-27.16594694 5.12958107 -14.98806033 4.35348069 -2.78125 0.609375 C-1.8634375 0.40828125 -0.945625 0.2071875 0 0 Z " fill="#409A97" transform="translate(282,286)"/>
<path d="M0 0 C0.33 0.99 0.66 1.98 1 3 C1.66 3.33 2.32 3.66 3 4 C1.58922306 5.7755291 0.17113464 7.54525031 -1.25 9.3125 C-2.03890625 10.29863281 -2.8278125 11.28476562 -3.640625 12.30078125 C-5.65198298 14.6018547 -7.4793158 16.30605396 -10 18 C-10 16.35 -10 14.7 -10 13 C-8.68 12.67 -7.36 12.34 -6 12 C-6 10.68 -6 9.36 -6 8 C-5.01 8 -4.02 8 -3 8 C-3 6.35 -3 4.7 -3 3 C-2.01 3 -1.02 3 0 3 C0 2.01 0 1.02 0 0 Z " fill="#6295D6" transform="translate(309,420)"/>
<path d="M0 0 C2 2 2 2 2 5 C7.94 5 13.88 5 20 5 C20 6.32 20 7.64 20 9 C19.29101562 8.835 18.58203125 8.67 17.8515625 8.5 C14.94386024 7.99015632 12.32205889 7.93505104 9.375 8 C6.14310717 8.07083601 4.09343748 8.03114583 1 7 C-0.25 5.125 -0.25 5.125 -1 3 C-0.67 2.01 -0.34 1.02 0 0 Z " fill="#DCECFD" transform="translate(342,158)"/>
<path d="M0 0 C0.33 0 0.66 0 1 0 C0.6059944 10.97305596 -1.57644574 21.3250889 -4 32 C-4.33 32 -4.66 32 -5 32 C-4.70323165 20.84151022 -3.06785197 10.73034735 0 0 Z " fill="#3974C5" transform="translate(399,216)"/>
<path d="M0 0 C0.66 0 1.32 0 2 0 C2.33 0.66 2.66 1.32 3 2 C3.66 1.34 4.32 0.68 5 0 C5 6.6 5 13.2 5 20 C3.37066297 16.74132594 2.32794621 14.03257181 1.375 10.5625 C1.11460938 9.63566406 0.85421875 8.70882812 0.5859375 7.75390625 C0.01618796 5.07608341 -0.10889863 2.72741575 0 0 Z " fill="#3779CB" transform="translate(105,246)"/>
<path d="M0 0 C2.85831065 3.45269941 4.69937252 7.2697137 6.5625 11.3125 C6.86607422 11.95123047 7.16964844 12.58996094 7.48242188 13.24804688 C9.42765928 17.430943 10.83897061 21.53494669 12 26 C11.34 26.33 10.68 26.66 10 27 C8.74335022 24.09399739 8 22.20395416 8 19 C7.34 19 6.68 19 6 19 C6 17.02 6 15.04 6 13 C5.34 13 4.68 13 4 13 C3.32404685 11.58774074 2.65959941 10.16997095 2 8.75 C1.62875 7.96109375 1.2575 7.1721875 0.875 6.359375 C0 4 0 4 0 0 Z " fill="#417BC9" transform="translate(383,105)"/>
<path d="M0 0 C3.63 0 7.26 0 11 0 C10.34 0.66 9.68 1.32 9 2 C9.99 3.485 9.99 3.485 11 5 C8.50598068 5.92371086 7.37563902 6.15467489 4.875 5.125 C0.69129299 3.48789726 -3.54591969 3.32865059 -8 3 C-8 2.67 -8 2.34 -8 2 C-5.36 2 -2.72 2 0 2 C0 1.34 0 0.68 0 0 Z " fill="#0B36C5" transform="translate(292,129)"/>
<path d="M0 0 C1.45246778 0.01005168 2.9049423 0.01917365 4.35742188 0.02734375 C7.88425682 0.04917983 11.4108342 0.08358851 14.9375 0.125 C14.9375 0.455 14.9375 0.785 14.9375 1.125 C14.20225098 1.14481934 13.46700195 1.16463867 12.70947266 1.18505859 C9.32683373 1.2812499 5.94473463 1.39054257 2.5625 1.5 C1.40621094 1.5309375 0.24992187 1.561875 -0.94140625 1.59375 C-7.11725859 1.80310093 -12.94348855 2.28152245 -18.96337891 3.70947266 C-21.0625 4.125 -21.0625 4.125 -25.0625 4.125 C-25.0625 3.465 -25.0625 2.805 -25.0625 2.125 C-16.7149725 -0.24401898 -8.58848948 -0.10391278 0 0 Z " fill="#063DC2" transform="translate(251.0625,67.875)"/>
<path d="M0 0 C-4.92535232 4.19567049 -9.67329269 4.3329846 -16 4 C-19.4375 3 -19.4375 3 -22 2 C-22 1.67 -22 1.34 -22 1 C-19.6460153 0.83034345 -17.29186616 0.6642065 -14.9375 0.5 C-13.62652344 0.4071875 -12.31554687 0.314375 -10.96484375 0.21875 C-7.29924005 0.0165098 -3.67009048 -0.0381804 0 0 Z " fill="#7DA6DC" transform="translate(262,470)"/>
<path d="M0 0 C0.66 0 1.32 0 2 0 C2.22036864 3.85645121 1.60355101 6.49223216 0 10 C-0.66 10 -1.32 10 -2 10 C-1.95875 10.680625 -1.9175 11.36125 -1.875 12.0625 C-2.02549965 15.59924168 -2.94375853 18.63323033 -4 22 C-5.65 22.33 -7.3 22.66 -9 23 C-8.68546875 22.42894531 -8.3709375 21.85789063 -8.046875 21.26953125 C-4.4266311 14.41069566 -2.09178228 7.45562622 0 0 Z " fill="#3480A9" transform="translate(359,206)"/>
<path d="M0 0 C0.33 0 0.66 0 1 0 C1.01981934 0.75619629 1.03963867 1.51239258 1.06005859 2.29150391 C1.15564572 5.73633718 1.26518891 9.18059201 1.375 12.625 C1.4059375 13.81480469 1.436875 15.00460938 1.46875 16.23046875 C1.50742188 17.38417969 1.54609375 18.53789062 1.5859375 19.7265625 C1.6173584 20.78439941 1.6487793 21.84223633 1.68115234 22.93212891 C2.01995688 26.19201999 2.85610583 28.93757455 4 32 C3.34 32.66 2.68 33.32 2 34 C1.01 34 0.02 34 -1 34 C-0.67 22.78 -0.34 11.56 0 0 Z " fill="#4B89C4" transform="translate(137,170)"/>
<path d="M0 0 C1.32 0.33 2.64 0.66 4 1 C4 1.66 4 2.32 4 3 C3.34 3 2.68 3 2 3 C2.09539062 3.61488281 2.19078125 4.22976562 2.2890625 4.86328125 C2.39992188 5.67152344 2.51078125 6.47976562 2.625 7.3125 C2.79902344 8.51326172 2.79902344 8.51326172 2.9765625 9.73828125 C3 12 3 12 1 15 C0.67 11.37 0.34 7.74 0 4 C-5.94 4.33 -11.88 4.66 -18 5 C-18 4.34 -18 3.68 -18 3 C-12.06 3 -6.12 3 0 3 C0 2.01 0 1.02 0 0 Z " fill="#366BC7" transform="translate(361,155)"/>
<path d="M0 0 C5.94 0 11.88 0 18 0 C18 0.33 18 0.66 18 1 C17.33613281 1.10957031 16.67226563 1.21914062 15.98828125 1.33203125 C11.0089899 2.22612298 7.26315378 3.15789748 3 6 C2.01 6 1.02 6 0 6 C0 4.02 0 2.04 0 0 Z " fill="#2648AE" transform="translate(312,147)"/>
<path d="M0 0 C0.66 0 1.32 0 2 0 C3.02028865 1.31787285 4.01971384 2.65210653 5 4 C5.66 4.33 6.32 4.66 7 5 C8.13004143 7.54259321 9.0492973 10.13556758 10 12.75 C10.78431361 15.15703483 10.78431361 15.15703483 13 16 C13.625 19.0625 13.625 19.0625 14 22 C10.7860583 18.13150266 8.01482585 14.10434029 5.3125 9.875 C4.90966797 9.25496094 4.50683594 8.63492187 4.09179688 7.99609375 C2.39318496 5.35001489 0.99862511 2.99587534 0 0 Z " fill="#84B1E0" transform="translate(158,379)"/>
<path d="M0 0 C0.74185547 -0.00322266 1.48371094 -0.00644531 2.24804688 -0.00976562 C6.41637452 0.03106394 9.63163099 0.42087006 13.4375 2.3125 C13.4375 2.6425 13.4375 2.9725 13.4375 3.3125 C11.1275 3.3125 8.8175 3.3125 6.4375 3.3125 C6.4375 2.6525 6.4375 1.9925 6.4375 1.3125 C0.4201458 1.71936737 -4.83407945 2.35645396 -10.5625 4.3125 C-12.9375 3.9375 -12.9375 3.9375 -14.5625 3.3125 C-9.51431589 0.28038942 -5.70550285 -0.1245743 0 0 Z " fill="#DCE8FE" transform="translate(164.5625,131.6875)"/>
<path d="M0 0 C7.95398808 0.45406625 15.32797907 1.87111461 23 4 C22.01 4.33 21.02 4.66 20 5 C20 5.66 20 6.32 20 7 C18.68 7.33 17.36 7.66 16 8 C16 6.68 16 5.36 16 4 C10.72 3.34 5.44 2.68 0 2 C0 1.34 0 0.68 0 0 Z " fill="#3E78C8" transform="translate(272,29)"/>
<path d="M0 0 C2.475 0.99 2.475 0.99 5 2 C5 2.99 5 3.98 5 5 C6.65 5.33 8.3 5.66 10 6 C11 12.625 11 12.625 11 16 C9.16074213 13.71287089 7.32848506 11.42071465 5.5 9.125 C4.97535156 8.47402344 4.45070312 7.82304687 3.91015625 7.15234375 C3.16572266 6.21455078 3.16572266 6.21455078 2.40625 5.2578125 C1.94541016 4.6817627 1.48457031 4.10571289 1.00976562 3.51220703 C0 2 0 2 0 0 Z " fill="#7AA7DE" transform="translate(179,411)"/>
<path d="M0 0 C1.61264527 2.4723836 2.06414472 3.60397606 1.58447266 6.56542969 C1.2807373 7.50805664 0.97700195 8.45068359 0.6640625 9.421875 C0.34179688 10.44667969 0.01953125 11.47148437 -0.3125 12.52734375 C-0.663125 13.59082031 -1.01375 14.65429688 -1.375 15.75 C-1.71789062 16.82894531 -2.06078125 17.90789062 -2.4140625 19.01953125 C-3.26297989 21.6841886 -4.12533541 24.34370507 -5 27 C-5.33 27 -5.66 27 -6 27 C-6.35991909 22.32105185 -5.41855568 18.91151225 -3.8671875 14.58984375 C-2.2676905 9.81296759 -1.16831181 4.89696653 0 0 Z " fill="#3B76C5" transform="translate(389,260)"/>
<path d="M0 0 C5.24972347 4.10037573 9.20962911 8.52964787 13 14 C10.1875 13.875 10.1875 13.875 7 13 C5.14042984 10.05033699 4.09914185 7.29742554 3 4 C2.34 4 1.68 4 1 4 C0.67 2.68 0.34 1.36 0 0 Z " fill="#3A76C7" transform="translate(355,69)"/>
<path d="M0 0 C0 0.66 0 1.32 0 2 C-0.639375 2.2475 -1.27875 2.495 -1.9375 2.75 C-4.49019039 3.96621634 -4.49019039 3.96621634 -5 8 C-8.3 7.67 -11.6 7.34 -15 7 C-12.53370834 5.35580556 -10.07265358 3.84141254 -7.5 2.375 C-6.7265625 1.92898438 -5.953125 1.48296875 -5.15625 1.0234375 C-3 0 -3 0 0 0 Z " fill="#3574CA" transform="translate(311,276)"/>
<path d="M0 0 C1.27310312 0.93441535 2.543388 1.87267111 3.8125 2.8125 C4.52019531 3.33457031 5.22789062 3.85664063 5.95703125 4.39453125 C7.79961207 5.84252498 9.46364869 7.23101505 11 9 C11 9.66 11 10.32 11 11 C8.36 10.67 5.72 10.34 3 10 C2.690625 8.906875 2.38125 7.81375 2.0625 6.6875 C1.41662103 4.44592006 0.7376883 2.2130649 0 0 Z " fill="#2D81AE" transform="translate(159,248)"/>
<path d="M0 0 C5.7266425 2.9826263 10.26638344 6.62294157 15 11 C14.34 11.66 13.68 12.32 13 13 C12.01 12.67 11.02 12.34 10 12 C10 11.34 10 10.68 10 10 C9.34 9.67 8.68 9.34 8 9 C7.71125 8.34 7.4225 7.68 7.125 7 C6.1765144 4.79994195 6.1765144 4.79994195 3.875 4.25 C3.25625 4.1675 2.6375 4.085 2 4 C2 3.34 2 2.68 2 2 C1.34 2 0.68 2 0 2 C0 1.34 0 0.68 0 0 Z " fill="#447DC9" transform="translate(335,53)"/>
<path d="M0 0 C0.66 0 1.32 0 2 0 C2.04898438 0.60328125 2.09796875 1.2065625 2.1484375 1.828125 C2.22320312 2.62734375 2.29796875 3.4265625 2.375 4.25 C2.44460937 5.03890625 2.51421875 5.8278125 2.5859375 6.640625 C3.01575922 9.0897978 3.88165039 10.8005791 5 13 C4.625 15.25 4.625 15.25 4 17 C2.68 16.34 1.36 15.68 0 15 C0 10.05 0 5.1 0 0 Z " fill="#367BBD" transform="translate(140,206)"/>
<path d="M0 0 C1.65 0 3.3 0 5 0 C4.01 0.495 4.01 0.495 3 1 C3.66 1.99 4.32 2.98 5 4 C5 4.99 5 5.98 5 7 C5.66 6.34 6.32 5.68 7 5 C9.65537372 4.43479997 12.29144713 4.26211802 15 4 C11.87567603 6.52349243 8.61939504 8.27256146 5 10 C3.35 6.7 1.7 3.4 0 0 Z " fill="#1D3FAF" transform="translate(266,128)"/>
<path d="M0 0 C-0.33 0.66 -0.66 1.32 -1 2 C-4.26036419 3.08678806 -7.14050652 3.39309386 -10.5625 3.6875 C-11.71878906 3.79449219 -12.87507812 3.90148437 -14.06640625 4.01171875 C-17 4 -17 4 -19 2 C-12.56971459 0.67611771 -6.5705166 -0.24794402 0 0 Z " fill="#3B79C7" transform="translate(236,28)"/>
<path d="M0 0 C0 0.33 0 0.66 0 1 C-0.68964844 1.02578125 -1.37929687 1.0515625 -2.08984375 1.078125 C-8.06880482 1.43899508 -12.75795854 2.37897927 -18.125 5.0625 C-20 6 -20 6 -23 7 C-22.69921875 5.109375 -22.69921875 5.109375 -22 3 C-14.97112225 -0.8589917 -7.84495556 -0.29749129 0 0 Z " fill="#183BAD" transform="translate(170,130)"/>
<path d="M0 0 C2.97 0.495 2.97 0.495 6 1 C2.79239749 4.80635497 -0.40746109 8.54563567 -4 12 C-4.66 11.67 -5.32 11.34 -6 11 C-5.525625 10.608125 -5.05125 10.21625 -4.5625 9.8125 C-2.64820367 7.59191626 -2.38733012 5.86624291 -2 3 C-1.67 3.66 -1.34 4.32 -1 5 C-0.34 5 0.32 5 1 5 C0.67 3.35 0.34 1.7 0 0 Z " fill="#87B1E4" transform="translate(283,448)"/>
<path d="M0 0 C1.89999557 0.73939222 3.79484167 1.49202344 5.6875 2.25 C6.74324219 2.66765625 7.79898438 3.0853125 8.88671875 3.515625 C12.01922259 5.0091651 14.38819471 6.73223585 17 9 C13.34056353 8.31092878 9.77558041 7.43178734 6.1875 6.4375 C5.21167969 6.16808594 4.23585937 5.89867187 3.23046875 5.62109375 C2.12638672 5.31365234 2.12638672 5.31365234 1 5 C1.33 4.01 1.66 3.02 2 2 C1.34 2 0.68 2 0 2 C0 1.34 0 0.68 0 0 Z " fill="#3D8CA7" transform="translate(186,273)"/>
<path d="M0 0 C3.50944037 2.58590343 4.9957983 3.9915966 7 8 C4.03 8.66 1.06 9.32 -2 10 C-1.34 9.01 -0.68 8.02 0 7 C0.66 7 1.32 7 2 7 C1.34 6.01 0.68 5.02 0 4 C0 2.68 0 1.36 0 0 Z " fill="#209624" transform="translate(275,279)"/>
<path d="M0 0 C2.45862401 -0.05383848 4.9160755 -0.09359038 7.375 -0.125 C8.42300781 -0.15013672 8.42300781 -0.15013672 9.4921875 -0.17578125 C11.32897486 -0.19344267 13.16601963 -0.10303261 15 0 C15.66 0.66 16.32 1.32 17 2 C18.31747324 2.69748583 19.64914193 3.36959957 21 4 C13.86606248 3.48462048 6.98187183 2.55994099 0 1 C0 0.67 0 0.34 0 0 Z " fill="#2969DB" transform="translate(256,66)"/>
<path d="M0 0 C0.66 0 1.32 0 2 0 C1.25 3.375 1.25 3.375 0 7 C-1.9375 8.0625 -1.9375 8.0625 -4 9 C-4.495 9.99 -4.99 10.98 -5.5 12 C-7.06842397 15.13684794 -7.77255533 15.88708805 -11 17 C-8.51484834 12.31644496 -5.86663926 8.4757509 -2.26953125 4.578125 C-0.77638957 2.90958167 -0.77638957 2.90958167 0 0 Z " fill="#307EA8" transform="translate(346,237)"/>
<path d="M0 0 C2.5215021 -0.08172936 5.04029917 -0.14083373 7.5625 -0.1875 C8.26697266 -0.21263672 8.97144531 -0.23777344 9.69726562 -0.26367188 C14.88003315 -0.33532304 18.36264182 0.67827402 23 3 C23 3.66 23 4.32 23 5 C22.26136719 4.79503906 21.52273437 4.59007813 20.76171875 4.37890625 C13.82672596 2.53721185 7.16250663 1.40888325 0 1 C0 0.67 0 0.34 0 0 Z " fill="#2443B4" transform="translate(224,107)"/>
<path d="M0 0 C0.66 0 1.32 0 2 0 C1.57202798 5.70629354 -0.84345952 9.41078616 -4 14 C-5.53445094 10.93109813 -4.54984289 8.29905734 -4 5 C-2.68 5 -1.36 5 0 5 C0 3.35 0 1.7 0 0 Z " fill="#85B0E0" transform="translate(347,364)"/>
<path d="M0 0 C0.66 0.33 1.32 0.66 2 1 C1.360625 1.598125 0.72125 2.19625 0.0625 2.8125 C-2.20310389 4.90810337 -2.20310389 4.90810337 -3 8 C-3.99 8 -4.98 8 -6 8 C-6 8.66 -6 9.32 -6 10 C-7.65 10 -9.3 10 -11 10 C-8.76684516 6.59150051 -6.50292196 5.01418013 -3 3 C-1.24850835 1.41754725 -1.24850835 1.41754725 0 0 Z " fill="#2175BD" transform="translate(322,266)"/>
<path d="M0 0 C2.57867561 2.73603574 3.91583173 4.32917888 4.390625 8.11328125 C4.34421875 9.16902344 4.2978125 10.22476563 4.25 11.3125 C4.21390625 12.38113281 4.1778125 13.44976562 4.140625 14.55078125 C4.09421875 15.35902344 4.0478125 16.16726562 4 17 C1.94862685 13.51783717 1.43181408 10.22724343 0.875 6.25 C0.70742187 5.07953125 0.53984375 3.9090625 0.3671875 2.703125 C0.24601562 1.81109375 0.12484375 0.9190625 0 0 Z " fill="#427AC8" transform="translate(101,229)"/>
<path d="M0 0 C2.475 0.99 2.475 0.99 5 2 C5 3.98 5 5.96 5 8 C5.66 8 6.32 8 7 8 C7 9.65 7 11.3 7 13 C0 4.25 0 4.25 0 0 Z " fill="#81ACE0" transform="translate(151,366)"/>
<path d="M0 0 C6.6 0.99 13.2 1.98 20 3 C20 3.33 20 3.66 20 4 C17.60347472 4.08139142 15.20974564 4.14067009 12.8125 4.1875 C12.13896484 4.21263672 11.46542969 4.23777344 10.77148438 4.26367188 C6.31116118 4.3289449 3.55034309 3.73686642 0 1 C0 0.67 0 0.34 0 0 Z " fill="#2772B8" transform="translate(220,289)"/>
<path d="M0 0 C0.33 0.99 0.66 1.98 1 3 C-7.14537445 8.49339207 -7.14537445 8.49339207 -10 10 C-10.66 9.67 -11.32 9.34 -12 9 C-10.37680325 7.68527053 -8.751385 6.37328338 -7.125 5.0625 C-6.22007812 4.33160156 -5.31515625 3.60070313 -4.3828125 2.84765625 C-2 1 -2 1 0 0 Z " fill="#487EC9" transform="translate(165,52)"/>
<path d="M0 0 C0.33 0.66 0.66 1.32 1 2 C-0.43359375 4.6015625 -0.43359375 4.6015625 -2.4375 7.625 C-3.42556641 9.12933594 -3.42556641 9.12933594 -4.43359375 10.6640625 C-4.95050781 11.43492187 -5.46742188 12.20578125 -6 13 C-7.24546405 10.50907189 -6.7767578 9.58919267 -6 7 C-5.34 7 -4.68 7 -4 7 C-4 5.35 -4 3.7 -4 2 C-2.68 1.34 -1.36 0.68 0 0 Z " fill="#8AB3E1" transform="translate(341,378)"/>
<path d="M0 0 C1.0625 1.875 1.0625 1.875 2 4 C1.67 4.66 1.34 5.32 1 6 C-0.32 5.67 -1.64 5.34 -3 5 C-3.66 6.98 -4.32 8.96 -5 11 C-5.99 11 -6.98 11 -8 11 C-7.24266726 9.6589523 -6.46867264 8.32730219 -5.6875 7 C-5.25824219 6.2575 -4.82898438 5.515 -4.38671875 4.75 C-3.92910156 4.1725 -3.47148437 3.595 -3 3 C-2.01 3 -1.02 3 0 3 C0 2.01 0 1.02 0 0 Z " fill="#3777D0" transform="translate(355,225)"/>
<path d="M0 0 C2.6015625 -0.29296875 2.6015625 -0.29296875 5.625 -0.1875 C7.12933594 -0.14689453 7.12933594 -0.14689453 8.6640625 -0.10546875 C9.43492187 -0.07066406 10.20578125 -0.03585938 11 0 C11 0.66 11 1.32 11 2 C4.565 2.495 4.565 2.495 -2 3 C-1.34 2.01 -0.68 1.02 0 0 Z " fill="#0931BD" transform="translate(281,129)"/>
<path d="M0 0 C-1.28524261 0.86380259 -2.57842419 1.71580369 -3.875 2.5625 C-4.59429687 3.03816406 -5.31359375 3.51382812 -6.0546875 4.00390625 C-6.69664062 4.33261719 -7.33859375 4.66132813 -8 5 C-8.66 4.67 -9.32 4.34 -10 4 C-9.67 2.68 -9.34 1.36 -9 0 C-5.5657338 -0.85856655 -3.38317487 -0.97591583 0 0 Z " fill="#6F9DD7" transform="translate(272,465)"/>
<path d="M0 0 C2.625 -0.1875 2.625 -0.1875 5 0 C5 0.99 5 1.98 5 3 C4.01 3.495 4.01 3.495 3 4 C1.86649466 6.01669827 1.86649466 6.01669827 1 8 C0.67 7.01 0.34 6.02 0 5 C-0.66 4.34 -1.32 3.68 -2 3 C-1.34 2.01 -0.68 1.02 0 0 Z " fill="#0633C7" transform="translate(183,129)"/>
<path d="M0 0 C1.12894876 0.93274109 2.25300876 1.87140122 3.375 2.8125 C4.00148438 3.33457031 4.62796875 3.85664063 5.2734375 4.39453125 C7 6 7 6 9 9 C7.35 8.67 5.7 8.34 4 8 C4 7.34 4 6.68 4 6 C3.01 5.67 2.02 5.34 1 5 C0.67 3.35 0.34 1.7 0 0 Z " fill="#CCEFCB" transform="translate(259,263)"/>
<path d="M0 0 C-0.66 1.32 -1.32 2.64 -2 4 C-4.97 4 -7.94 4 -11 4 C-3.77464789 -1.88732394 -3.77464789 -1.88732394 0 0 Z " fill="#427ECC" transform="translate(191,40)"/>
<path d="M0 0 C1.32 0 2.64 0 4 0 C4.33 1.32 4.66 2.64 5 4 C5.66 4 6.32 4 7 4 C6.67 5.32 6.34 6.64 6 8 C4.9970458 6.85675161 3.99770973 5.71032809 3 4.5625 C2.443125 3.92441406 1.88625 3.28632813 1.3125 2.62890625 C0 1 0 1 0 0 Z " fill="#74A1D5" transform="translate(191,427)"/>
<path d="M0 0 C-1.875 5.75 -1.875 5.75 -3 8 C-3.66 8 -4.32 8 -5 8 C-5.75 6.25 -5.75 6.25 -6 4 C-2.77777778 0 -2.77777778 0 0 0 Z " fill="#166EDE" transform="translate(351,354)"/>
<path d="M0 0 C0.99 0 1.98 0 3 0 C3 0.66 3 1.32 3 2 C3.66 2 4.32 2 5 2 C5 2.99 5 3.98 5 5 C5.99 5 6.98 5 8 5 C8.33 6.65 8.66 8.3 9 10 C5.06451569 6.93906776 2.31883213 4.50884026 0 0 Z " fill="#2D6ACD" transform="translate(326,96)"/>
<path d="M0 0 C-4.95 2.97 -4.95 2.97 -10 6 C-10 4.68 -10 3.36 -10 2 C-6.70021068 -0.19985954 -3.76967739 -1.88483869 0 0 Z " fill="#3B75CB" transform="translate(192,84)"/>
<path d="M0 0 C4.20626034 1.50223584 5.73900021 4.28550034 8 8 C4.18315774 6.44499019 1.80804268 3.96404505 -1 1 C-0.67 0.67 -0.34 0.34 0 0 Z " fill="#7FA6DD" transform="translate(220,456)"/>
<path d="M0 0 C1.485 0.99 1.485 0.99 3 2 C3.1875 5.125 3.1875 5.125 3 8 C3.66 8 4.32 8 5 8 C4.67 9.65 4.34 11.3 4 13 C1.99706653 9.99559979 1.50728374 8.29006055 0.875 4.8125 C0.70742187 3.91144531 0.53984375 3.01039063 0.3671875 2.08203125 C0.24601562 1.39496094 0.12484375 0.70789063 0 0 Z " fill="#3A75C7" transform="translate(110,266)"/>
<path d="M0 0 C0.66 0 1.32 0 2 0 C0.44499019 3.81684226 -2.03595495 6.19195732 -5 9 C-4.67 7.35 -4.34 5.7 -4 4 C-3.01 3.67 -2.02 3.34 -1 3 C-0.67 2.01 -0.34 1.02 0 0 Z " fill="#D5ECFA" transform="translate(336,249)"/>
<path d="M0 0 C1.32 0 2.64 0 4 0 C4 0.99 4 1.98 4 3 C4.99 3 5.98 3 7 3 C7 4.65 7 6.3 7 8 C1.125 3.375 1.125 3.375 0 0 Z " fill="#0B9313" transform="translate(163,249)"/>
<path d="M0 0 C1.98 0 3.96 0 6 0 C4.35 1.98 2.7 3.96 1 6 C-0.0625 4.125 -0.0625 4.125 -1 2 C-0.67 1.34 -0.34 0.68 0 0 Z " fill="#5D93D5" transform="translate(289,443)"/>
<path d="M0 0 C0.33 0.99 0.66 1.98 1 3 C2.65 3.33 4.3 3.66 6 4 C5.67 5.98 5.34 7.96 5 10 C2 6.25 2 6.25 2 4 C1.34 4 0.68 4 0 4 C0 2.68 0 1.36 0 0 Z " fill="#3270C6" transform="translate(158,375)"/>
<path d="M0 0 C3.0534135 -0.29359745 5.95743422 -0.4451258 9 0 C11.5625 2.5 11.5625 2.5 13 5 C11.02 4.34 9.04 3.68 7 3 C7 2.34 7 1.68 7 1 C4.69 1 2.38 1 0 1 C0 0.67 0 0.34 0 0 Z " fill="#2C942B" transform="translate(195,206)"/>
<path d="M0 0 C0 0.66 0 1.32 0 2 C-6.28571429 4.42857143 -6.28571429 4.42857143 -10 3 C-6.27034861 0.96564469 -4.33094958 0 0 0 Z " fill="#CDDAF7" transform="translate(160,132)"/>
<path d="M0 0 C4.95 0 9.9 0 15 0 C15 0.99 15 1.98 15 3 C7.575 2.01 7.575 2.01 0 1 C0 0.67 0 0.34 0 0 Z " fill="#3853C1" transform="translate(284,131)"/>
<path d="M0 0 C1.60597325 0.45196245 3.20972508 0.91182327 4.8125 1.375 C6.15248047 1.75785156 6.15248047 1.75785156 7.51953125 2.1484375 C10 3 10 3 13 5 C8.07284004 5.46192125 4.49267375 3.8275283 0 2 C0 1.34 0 0.68 0 0 Z " fill="#5188CB" transform="translate(296,34)"/>
<path d="M0 0 C2.475 0.99 2.475 0.99 5 2 C5 2.66 5 3.32 5 4 C5.66 4.33 6.32 4.66 7 5 C6.67 5.99 6.34 6.98 6 8 C4.99403703 7.0479279 3.99538437 6.08812654 3 5.125 C2.443125 4.59132813 1.88625 4.05765625 1.3125 3.5078125 C0 2 0 2 0 0 Z " fill="#78A5DB" transform="translate(198,435)"/>
<path d="M0 0 C1.32 0.33 2.64 0.66 4 1 C1.525 4.465 1.525 4.465 -1 8 C-2 6 -2 6 -1.0625 2.875 C-0.5365625 1.451875 -0.5365625 1.451875 0 0 Z " fill="#77A3DB" transform="translate(316,412)"/>
<path d="M0 0 C1.890625 0.21484375 1.890625 0.21484375 4 1 C5.046875 3.06640625 5.046875 3.06640625 5.75 5.5625 C5.99234375 6.38878906 6.2346875 7.21507812 6.484375 8.06640625 C6.65453125 8.70449219 6.8246875 9.34257812 7 10 C3.66442368 7.0094833 1.84916079 4.06815373 0 0 Z " fill="#8AB2E0" transform="translate(172,401)"/>
<path d="M0 0 C-5.75 4 -5.75 4 -8 4 C-8 2.68 -8 1.36 -8 0 C-4.71303767 -0.79953138 -3.28976808 -1.09658936 0 0 Z " fill="#E3F4FC" transform="translate(307,277)"/>
<path d="M0 0 C2.74277578 3.19990508 4.6302836 6.00499382 6 10 C5.34 10 4.68 10 4 10 C3.67 8.68 3.34 7.36 3 6 C2.34 6 1.68 6 1 6 C1 5.34 1 4.68 1 4 C0.34 4 -0.32 4 -1 4 C-0.67 2.68 -0.34 1.36 0 0 Z " fill="#3D78C6" transform="translate(150,233)"/>
<path d="M0 0 C4.19174654 1.04793663 5.21592961 1.91763635 8 5 C7.34 5.66 6.68 6.32 6 7 C4.02 4.69 2.04 2.38 0 0 Z " fill="#306FC4" transform="translate(207,444)"/>
<path d="M0 0 C2.475 0.495 2.475 0.495 5 1 C3.25 5.875 3.25 5.875 1 7 C0.67 4.69 0.34 2.38 0 0 Z " fill="#6496DE" transform="translate(329,390)"/>
<path d="M0 0 C0.99 0.33 1.98 0.66 3 1 C2.01 2.32 1.02 3.64 0 5 C-2.97 4.505 -2.97 4.505 -6 4 C-4.03617993 2.49440461 -2.21736634 1.10868317 0 0 Z " fill="#0B9517" transform="translate(213,280)"/>
<path d="M0 0 C2.97 0.495 2.97 0.495 6 1 C6 2.98 6 4.96 6 7 C3.95880212 5.38405168 1.95927063 3.7143618 0 2 C0 1.34 0 0.68 0 0 Z " fill="#D6F5D4" transform="translate(247,249)"/>
<path d="M0 0 C0.33 0.66 0.66 1.32 1 2 C1.66 2 2.32 2 3 2 C3.33 3.98 3.66 5.96 4 8 C3.01 8 2.02 8 1 8 C0.67 5.36 0.34 2.72 0 0 Z " fill="#3081B1" transform="translate(146,225)"/>
<path d="M0 0 C3.375 -0.125 3.375 -0.125 7 0 C7.66 0.66 8.32 1.32 9 2 C6.1875 2.6875 6.1875 2.6875 3 3 C1.125 1.5625 1.125 1.5625 0 0 Z " fill="#D4EFE9" transform="translate(280,284)"/>
<path d="M0 0 C0.96160467 3.40538196 0.97131252 5.55625563 0 9 C-0.66 9.99 -1.32 10.98 -2 12 C-3.15957207 8.52128379 -2.77456651 7.65780355 -1.5625 4.3125 C-1.13130859 3.10013672 -1.13130859 3.10013672 -0.69140625 1.86328125 C-0.46324219 1.24839844 -0.23507813 0.63351563 0 0 Z " fill="#4F85CD" transform="translate(106,125)"/>
<path d="M0 0 C-0.33 1.32 -0.66 2.64 -1 4 C-3.31 4 -5.62 4 -8 4 C-2.7826087 0 -2.7826087 0 0 0 Z " fill="#073CC1" transform="translate(202,79)"/>
<path d="M0 0 C1.9375 0.25 1.9375 0.25 4 1 C4.66 1.99 5.32 2.98 6 4 C4.68 4.33 3.36 4.66 2 5 C1.67 4.01 1.34 3.02 1 2 C0.34 1.67 -0.32 1.34 -1 1 C-0.67 0.67 -0.34 0.34 0 0 Z " fill="#3271C9" transform="translate(344,61)"/>
<path d="M0 0 C0.33 0.99 0.66 1.98 1 3 C1.66 3 2.32 3 3 3 C3 3.66 3 4.32 3 5 C1.02 5 -0.96 5 -3 5 C-3.33 4.34 -3.66 3.68 -4 3 C-3.01 3 -2.02 3 -1 3 C-0.67 2.01 -0.34 1.02 0 0 Z " fill="#296CCC" transform="translate(243,466)"/>
<path d="M0 0 C2.31 0.33 4.62 0.66 7 1 C7.33 2.32 7.66 3.64 8 5 C2.25 3.375 2.25 3.375 0 0 Z " fill="#80ABDE" transform="translate(228,464)"/>
<path d="M0 0 C2.97 0.495 2.97 0.495 6 1 C4.35 2.65 2.7 4.3 1 6 C0.67 4.02 0.34 2.04 0 0 Z " fill="#5C91D6" transform="translate(283,448)"/>
<path d="M0 0 C1.39195915 4.17587745 -0.17676781 6.13474776 -2 10 C-3.01136941 7.26930259 -3.04557718 6.13998707 -2.125 3.3125 C-1 1 -1 1 0 0 Z " fill="#417CCF" transform="translate(378,298)"/>
<path d="M0 0 C0.33 0 0.66 0 1 0 C0.14285714 8.57142857 0.14285714 8.57142857 -2 12 C-2.28571429 3.42857143 -2.28571429 3.42857143 0 0 Z " fill="#3577C7" transform="translate(393,248)"/>
<path d="M0 0 C3 1 3 1 5 4 C5.125 6.6875 5.125 6.6875 5 9 C2.67527795 6.14693203 1.2491742 3.45925163 0 0 Z " fill="#3973C3" transform="translate(140,344)"/>
<path d="M0 0 C3.36591866 1.44253657 5.51047079 3.33264727 8 6 C5.21788056 5.62403791 3.4120716 5.32681541 1.1875 3.5625 C0 2 0 2 0 0 Z " fill="#427BC3" transform="translate(174,264)"/>
<path d="M0 0 C1.98 0 3.96 0 6 0 C5.34 0.66 4.68 1.32 4 2 C4.99 2.99 5.98 3.98 7 5 C6.01 5 5.02 5 4 5 C1.8125 2.5 1.8125 2.5 0 0 Z " fill="#2A9329" transform="translate(257,260)"/>
<path d="M0 0 C2.64 0 5.28 0 8 0 C7.01 0.33 6.02 0.66 5 1 C5 1.99 5 2.98 5 4 C1.125 2.25 1.125 2.25 0 0 Z " fill="#D3F1EE" transform="translate(171,260)"/>
<path d="M0 0 C0.33 0 0.66 0 1 0 C1 2.31 1 4.62 1 7 C0.01 7.33 -0.98 7.66 -2 8 C-1.125 1.125 -1.125 1.125 0 0 Z " fill="#3074C9" transform="translate(362,198)"/>
<path d="M0 0 C2.31 1.98 4.62 3.96 7 6 C6.34 6.66 5.68 7.32 5 8 C4.34 6.68 3.68 5.36 3 4 C2.34 4 1.68 4 1 4 C0.67 2.68 0.34 1.36 0 0 Z " fill="#477FC4" transform="translate(355,69)"/>
</svg>
